<?xml version="1.0" encoding="UTF-8"?>
<!DOCTYPE svg PUBLIC "-//W3C//DTD SVG 1.1//EN" "http://www.w3.org/Graphics/SVG/1.1/DTD/svg11.dtd">
<svg xmlns="http://www.w3.org/2000/svg" version="1.1" width="256px" height="256px" style="shape-rendering:geometricPrecision; text-rendering:geometricPrecision; image-rendering:optimizeQuality; fill-rule:evenodd; clip-rule:evenodd" xmlns:xlink="http://www.w3.org/1999/xlink">
<g><path style="opacity:1" fill="#fefefe" d="M -0.5,-0.5 C 84.8333,-0.5 170.167,-0.5 255.5,-0.5C 255.5,84.8333 255.5,170.167 255.5,255.5C 170.167,255.5 84.8333,255.5 -0.5,255.5C -0.5,170.167 -0.5,84.8333 -0.5,-0.5 Z"/></g>
<g><path style="opacity:1" fill="#ddecf4" d="M 88.5,89.5 C 87.8333,89.5 87.1667,89.5 86.5,89.5C 85.8333,89.5 85.1667,89.5 84.5,89.5C 75.533,88.6175 66.533,88.2841 57.5,88.5C 61.4451,87.1745 65.7784,86.5079 70.5,86.5C 74.8333,86.6667 79.1667,86.8333 83.5,87C 85.3146,87.7568 86.9812,88.5902 88.5,89.5 Z"/></g>
<g><path style="opacity:1" fill="#b6d7e8" d="M 229.5,86.5 C 232.713,86.19 235.713,86.5233 238.5,87.5C 235.615,87.1936 232.948,87.5269 230.5,88.5C 229.833,88.5 229.167,88.5 228.5,88.5C 228.833,87.8333 229.167,87.1667 229.5,86.5 Z"/></g>
<g><path style="opacity:1" fill="#ddecf4" d="M 229.5,86.5 C 229.167,87.1667 228.833,87.8333 228.5,88.5C 227.167,88.8333 225.833,89.1667 224.5,89.5C 222.973,89.427 221.973,90.0937 221.5,91.5C 220.833,91.5 220.167,91.5 219.5,91.5C 219.953,90.5416 220.619,89.7083 221.5,89C 223.927,87.4086 226.593,86.5752 229.5,86.5 Z"/></g>
<g><path style="opacity:1" fill="#71b1d2" d="M 230.5,88.5 C 232.948,87.5269 235.615,87.1936 238.5,87.5C 239.167,87.5 239.833,87.5 240.5,87.5C 240.833,88.1667 241.167,88.8333 241.5,89.5C 237.881,88.7564 234.215,88.423 230.5,88.5 Z"/></g>
<g><path style="opacity:1" fill="#9fcae0" d="M 169.5,88.5 C 169.5,88.8333 169.5,89.1667 169.5,89.5C 167.833,89.5 166.167,89.5 164.5,89.5C 164.5,89.1667 164.5,88.8333 164.5,88.5C 166.167,87.1667 167.833,87.1667 169.5,88.5 Z"/></g>
<g><path style="opacity:1" fill="#b5d6e7" d="M 240.5,87.5 C 242.027,87.427 243.027,88.0937 243.5,89.5C 242.833,89.5 242.167,89.5 241.5,89.5C 241.167,88.8333 240.833,88.1667 240.5,87.5 Z"/></g>
<g><path style="opacity:1" fill="#d6e8f1" d="M 164.5,88.5 C 164.5,88.8333 164.5,89.1667 164.5,89.5C 164.167,89.5 163.833,89.5 163.5,89.5C 161.973,89.427 160.973,90.0937 160.5,91.5C 158.973,91.427 157.973,92.0937 157.5,93.5C 155.938,93.7329 154.605,94.3995 153.5,95.5C 153.167,95.5 152.833,95.5 152.5,95.5C 155.601,91.6167 159.601,89.2833 164.5,88.5 Z"/></g>
<g><path style="opacity:1" fill="#aed2e5" d="M 55.5,89.5 C 54.5,90.1667 53.5,90.8333 52.5,91.5C 51.1667,91.5 49.8333,91.5 48.5,91.5C 47.8333,91.5 47.1667,91.5 46.5,91.5C 46.5,91.1667 46.5,90.8333 46.5,90.5C 49.5176,90.2962 52.5176,89.9629 55.5,89.5 Z"/></g>
<g><path style="opacity:1" fill="#6daed0" d="M 57.5,88.5 C 66.533,88.2841 75.533,88.6175 84.5,89.5C 84.5,89.8333 84.5,90.1667 84.5,90.5C 82.8333,90.5 81.1667,90.5 79.5,90.5C 78.5,90.5 77.5,90.5 76.5,90.5C 74.5274,89.8373 72.3608,89.5039 70,89.5C 64.131,89.9339 58.2976,90.6006 52.5,91.5C 53.5,90.8333 54.5,90.1667 55.5,89.5C 56.4916,89.6716 57.1583,89.3382 57.5,88.5 Z"/></g>
<g><path style="opacity:1" fill="#2988ba" d="M 76.5,90.5 C 66.4797,91.3125 56.4797,92.3125 46.5,93.5C 47.1667,92.8333 47.8333,92.1667 48.5,91.5C 49.8333,91.5 51.1667,91.5 52.5,91.5C 58.2976,90.6006 64.131,89.9339 70,89.5C 72.3608,89.5039 74.5274,89.8373 76.5,90.5 Z"/></g>
<g><path style="opacity:1" fill="#9ac7de" d="M 163.5,89.5 C 163.167,90.1667 162.833,90.8333 162.5,91.5C 161.833,91.5 161.167,91.5 160.5,91.5C 160.973,90.0937 161.973,89.427 163.5,89.5 Z"/></g>
<g><path style="opacity:1" fill="#9fcae0" d="M 224.5,89.5 C 224.167,90.1667 223.833,90.8333 223.5,91.5C 222.833,91.5 222.167,91.5 221.5,91.5C 221.973,90.0937 222.973,89.427 224.5,89.5 Z"/></g>
<g><path style="opacity:1" fill="#67aace" d="M 228.5,88.5 C 229.167,88.5 229.833,88.5 230.5,88.5C 228.491,90.0652 226.157,91.0652 223.5,91.5C 223.833,90.8333 224.167,90.1667 224.5,89.5C 225.833,89.1667 227.167,88.8333 228.5,88.5 Z"/></g>
<g><path style="opacity:1" fill="#2384b8" d="M 230.5,88.5 C 234.215,88.423 237.881,88.7564 241.5,89.5C 241.5,89.8333 241.5,90.1667 241.5,90.5C 235.346,90.1783 229.346,90.845 223.5,92.5C 223.5,92.1667 223.5,91.8333 223.5,91.5C 226.157,91.0652 228.491,90.0652 230.5,88.5 Z"/></g>
<g><path style="opacity:1" fill="#5ca5cb" d="M 163.5,89.5 C 163.833,89.5 164.167,89.5 164.5,89.5C 166.167,89.5 167.833,89.5 169.5,89.5C 171.28,90.9899 171.946,92.9899 171.5,95.5C 171.672,96.4916 171.338,97.1583 170.5,97.5C 170.795,95.2646 170.461,93.2646 169.5,91.5C 167.833,90.1667 166.167,90.1667 164.5,91.5C 163.833,91.5 163.167,91.5 162.5,91.5C 162.833,90.8333 163.167,90.1667 163.5,89.5 Z"/></g>
<g><path style="opacity:1" fill="#e7f2f7" d="M 171.5,88.5 C 173.735,89.2858 174.735,90.9524 174.5,93.5C 174.304,96.3461 172.97,98.3461 170.5,99.5C 170.5,98.8333 170.5,98.1667 170.5,97.5C 171.338,97.1583 171.672,96.4916 171.5,95.5C 172.756,93.2743 172.756,90.941 171.5,88.5 Z"/></g>
<g><path style="opacity:1" fill="#ddecf4" d="M 46.5,90.5 C 46.5,90.8333 46.5,91.1667 46.5,91.5C 44.847,91.6596 43.5137,92.3263 42.5,93.5C 40.302,93.1201 38.6354,93.7868 37.5,95.5C 37.1667,95.5 36.8333,95.5 36.5,95.5C 34.9731,95.427 33.9731,96.0937 33.5,97.5C 33.1667,97.5 32.8333,97.5 32.5,97.5C 32.1667,97.5 31.8333,97.5 31.5,97.5C 31.9528,96.5416 32.6195,95.7083 33.5,95C 37.6766,92.7755 42.01,91.2755 46.5,90.5 Z"/></g>
<g><path style="opacity:1" fill="#84bbd7" d="M 46.5,91.5 C 47.1667,91.5 47.8333,91.5 48.5,91.5C 47.8333,92.1667 47.1667,92.8333 46.5,93.5C 45.1667,93.5 43.8333,93.5 42.5,93.5C 43.5137,92.3263 44.847,91.6596 46.5,91.5 Z"/></g>
<g><path style="opacity:1" fill="#83bad7" d="M 160.5,91.5 C 160.167,92.1667 159.833,92.8333 159.5,93.5C 158.833,93.5 158.167,93.5 157.5,93.5C 157.973,92.0937 158.973,91.427 160.5,91.5 Z"/></g>
<g><path style="opacity:1" fill="#2785b8" d="M 160.5,91.5 C 161.167,91.5 161.833,91.5 162.5,91.5C 163.167,91.5 163.833,91.5 164.5,91.5C 163.365,93.2132 161.698,93.8799 159.5,93.5C 159.833,92.8333 160.167,92.1667 160.5,91.5 Z"/></g>
<g><path style="opacity:1" fill="#0274ae" d="M 169.5,91.5 C 168.02,95.8916 166.353,100.225 164.5,104.5C 164.5,104.833 164.5,105.167 164.5,105.5C 160.56,110.05 157.06,115.05 154,120.5C 152.595,125.269 154.428,127.602 159.5,127.5C 158.754,128.736 158.421,130.07 158.5,131.5C 157.341,132.456 156.174,133.456 155,134.5C 152.331,135.016 149.831,135.683 147.5,136.5C 147.5,136.833 147.5,137.167 147.5,137.5C 144.695,138.979 143.028,141.312 142.5,144.5C 141.89,145.391 141.557,146.391 141.5,147.5C 140.402,148.601 140.235,149.934 141,151.5C 143.326,151.88 145.159,152.88 146.5,154.5C 145.833,154.5 145.5,154.833 145.5,155.5C 141.155,157.92 136.489,159.086 131.5,159C 130.549,155.943 130.216,152.777 130.5,149.5C 134.732,145.962 136.066,141.462 134.5,136C 126.155,135.908 117.822,136.408 109.5,137.5C 108.812,138.855 107.812,139.855 106.5,140.5C 105.057,139.665 104.057,138.332 103.5,136.5C 100.823,135.926 98.1566,135.259 95.5,134.5C 96.1272,133.583 96.4606,132.583 96.5,131.5C 99.4274,130.243 101.761,128.243 103.5,125.5C 105.359,125.461 106.692,126.294 107.5,128C 110.367,128.801 113.034,128.634 115.5,127.5C 117.784,127.025 119.784,126.025 121.5,124.5C 122.482,123.859 123.482,123.193 124.5,122.5C 125.172,123.949 125.839,125.282 126.5,126.5C 127.449,127.152 128.615,127.486 130,127.5C 134.678,127.056 139.178,126.389 143.5,125.5C 144.167,124.5 144.833,123.5 145.5,122.5C 148.115,120.621 150.281,118.288 152,115.5C 152.49,114.207 152.657,112.873 152.5,111.5C 158.504,108.087 159.838,103.42 156.5,97.5C 157.524,96.1482 158.524,94.8149 159.5,93.5C 161.698,93.8799 163.365,93.2132 164.5,91.5C 166.167,90.1667 167.833,90.1667 169.5,91.5 Z"/></g>
<g><path style="opacity:1" fill="#abd0e4" d="M 169.5,89.5 C 169.5,89.1667 169.5,88.8333 169.5,88.5C 170.167,88.5 170.833,88.5 171.5,88.5C 172.756,90.941 172.756,93.2743 171.5,95.5C 171.946,92.9899 171.28,90.9899 169.5,89.5 Z"/></g>
<g><path style="opacity:1" fill="#89bed9" d="M 84.5,89.5 C 85.1667,89.5 85.8333,89.5 86.5,89.5C 88.2681,92.1625 88.9347,95.1625 88.5,98.5C 88.1667,98.5 87.8333,98.5 87.5,98.5C 87.7947,96.2646 87.4614,94.2646 86.5,92.5C 85.8333,91.8333 85.1667,91.1667 84.5,90.5C 84.5,90.1667 84.5,89.8333 84.5,89.5 Z"/></g>
<g><path style="opacity:1" fill="#cbe2ee" d="M 86.5,89.5 C 87.1667,89.5 87.8333,89.5 88.5,89.5C 88.5,90.1667 88.8333,90.5 89.5,90.5C 89.8064,93.3854 89.4731,96.0521 88.5,98.5C 88.9347,95.1625 88.2681,92.1625 86.5,89.5 Z"/></g>
<g><path style="opacity:1" fill="#71b0d1" d="M 219.5,91.5 C 220.167,91.5 220.833,91.5 221.5,91.5C 222.167,91.5 222.833,91.5 223.5,91.5C 223.5,91.8333 223.5,92.1667 223.5,92.5C 222.391,92.5569 221.391,92.8902 220.5,93.5C 219.167,93.8333 217.833,94.1667 216.5,94.5C 217.306,93.2719 218.306,92.2719 219.5,91.5 Z"/></g>
<g><path style="opacity:1" fill="#95c5dd" d="M 42.5,93.5 C 41.0697,94.5375 39.403,95.2041 37.5,95.5C 38.6354,93.7868 40.302,93.1201 42.5,93.5 Z"/></g>
<g><path style="opacity:1" fill="#1e81b6" d="M 241.5,90.5 C 242.458,90.9528 243.292,91.6195 244,92.5C 244.499,96.4862 244.666,100.486 244.5,104.5C 244.672,105.492 244.338,106.158 243.5,106.5C 243.167,106.5 242.833,106.5 242.5,106.5C 242.733,101.105 242.4,95.772 241.5,90.5 Z"/></g>
<g><path style="opacity:1" fill="#e4f0f6" d="M 243.5,89.5 C 245.017,89.5106 246.184,90.1772 247,91.5C 247.816,96.6842 247.65,101.684 246.5,106.5C 246.819,101.637 246.486,96.97 245.5,92.5C 244.833,91.5 244.167,90.5 243.5,89.5 Z"/></g>
<g><path style="opacity:1" fill="#90c2db" d="M 36.5,95.5 C 36.0269,96.9063 35.0269,97.573 33.5,97.5C 33.9731,96.0937 34.9731,95.427 36.5,95.5 Z"/></g>
<g><path style="opacity:1" fill="#6cadcf" d="M 157.5,93.5 C 156.415,95.5869 154.749,96.9202 152.5,97.5C 152.833,96.8333 153.167,96.1667 153.5,95.5C 154.605,94.3995 155.938,93.7329 157.5,93.5 Z"/></g>
<g><path style="opacity:1" fill="#75b2d2" d="M 214.5,95.5 C 214.027,96.9063 213.027,97.573 211.5,97.5C 211.973,96.0937 212.973,95.427 214.5,95.5 Z"/></g>
<g><path style="opacity:1" fill="#0575af" d="M 241.5,90.5 C 242.4,95.772 242.733,101.105 242.5,106.5C 236.731,115.88 229.731,124.213 221.5,131.5C 215.912,135.588 209.579,137.921 202.5,138.5C 201.549,137.081 201.216,135.415 201.5,133.5C 201.5,133.167 201.5,132.833 201.5,132.5C 204.167,130.5 206.5,128.167 208.5,125.5C 209.609,125.443 210.609,125.11 211.5,124.5C 215.177,121.687 219.177,119.687 223.5,118.5C 225.782,115.878 228.115,113.212 230.5,110.5C 232.914,109.089 234.581,107.089 235.5,104.5C 235.427,102.973 236.094,101.973 237.5,101.5C 238.629,99.3718 238.796,97.0385 238,94.5C 231.487,93.0009 225.987,94.6676 221.5,99.5C 220.833,99.8333 220.167,100.167 219.5,100.5C 215.12,102.7 211.12,105.533 207.5,109C 201.913,114.35 196.913,120.183 192.5,126.5C 186.649,131.391 183.316,137.724 182.5,145.5C 181.274,149.367 181.274,153.367 182.5,157.5C 183.136,159.795 184.469,161.461 186.5,162.5C 186.953,163.458 187.619,164.292 188.5,165C 192.027,165.808 195.36,165.641 198.5,164.5C 202.077,164.855 205.077,163.855 207.5,161.5C 210.244,160.795 212.911,160.795 215.5,161.5C 212.506,163.213 209.84,165.213 207.5,167.5C 204.514,167.903 201.848,168.903 199.5,170.5C 198.791,171.404 197.791,171.737 196.5,171.5C 193.31,171.559 190.143,171.893 187,172.5C 182.35,171.475 177.85,170.142 173.5,168.5C 172.167,167.833 171.167,166.833 170.5,165.5C 169.62,158.877 169.287,152.211 169.5,145.5C 171.38,143.245 172.38,140.578 172.5,137.5C 173.89,136.101 174.89,134.434 175.5,132.5C 175.5,131.833 175.5,131.167 175.5,130.5C 184.866,120.134 194.866,110.467 205.5,101.5C 206.167,101.5 206.833,101.5 207.5,101.5C 212.499,99.7185 216.832,97.0518 220.5,93.5C 221.391,92.8902 222.391,92.5569 223.5,92.5C 229.346,90.845 235.346,90.1783 241.5,90.5 Z"/></g>
<g><path style="opacity:1" fill="#378fbe" d="M 237.5,101.5 C 237.795,99.2646 237.461,97.2646 236.5,95.5C 233.813,95.3359 231.146,95.5026 228.5,96C 227.944,96.3826 227.611,96.8826 227.5,97.5C 227.167,97.5 226.833,97.5 226.5,97.5C 224.973,97.427 223.973,98.0937 223.5,99.5C 223.167,99.5 222.833,99.5 222.5,99.5C 222.167,99.5 221.833,99.5 221.5,99.5C 225.987,94.6676 231.487,93.0009 238,94.5C 238.796,97.0385 238.629,99.3718 237.5,101.5 Z"/></g>
<g><path style="opacity:1" fill="#cee4ef" d="M 235.5,100.5 C 234.139,102.85 232.806,105.184 231.5,107.5C 231.167,107.5 230.833,107.5 230.5,107.5C 231.833,104.167 233.167,100.833 234.5,97.5C 231.402,97.7556 228.402,98.4222 225.5,99.5C 225.833,98.8333 226.167,98.1667 226.5,97.5C 226.833,97.5 227.167,97.5 227.5,97.5C 230.096,96.7347 232.763,96.4013 235.5,96.5C 235.5,97.8333 235.5,99.1667 235.5,100.5 Z"/></g>
<g><path style="opacity:1" fill="#97c5dd" d="M 236.5,95.5 C 236.784,97.4147 236.451,99.0813 235.5,100.5C 235.5,99.1667 235.5,97.8333 235.5,96.5C 232.763,96.4013 230.096,96.7347 227.5,97.5C 227.611,96.8826 227.944,96.3826 228.5,96C 231.146,95.5026 233.813,95.3359 236.5,95.5 Z"/></g>
<g><path style="opacity:1" fill="#65aace" d="M 241.5,90.5 C 241.5,90.1667 241.5,89.8333 241.5,89.5C 242.167,89.5 242.833,89.5 243.5,89.5C 244.167,90.5 244.833,91.5 245.5,92.5C 245.817,96.7016 245.483,100.702 244.5,104.5C 244.666,100.486 244.499,96.4862 244,92.5C 243.292,91.6195 242.458,90.9528 241.5,90.5 Z"/></g>
<g><path style="opacity:1" fill="#187eb4" d="M 157.5,93.5 C 158.167,93.5 158.833,93.5 159.5,93.5C 158.524,94.8149 157.524,96.1482 156.5,97.5C 159.838,103.42 158.504,108.087 152.5,111.5C 152.5,110.833 152.5,110.167 152.5,109.5C 154.262,108.738 155.262,107.404 155.5,105.5C 156.434,104.432 156.768,103.099 156.5,101.5C 154.447,101.402 152.78,102.069 151.5,103.5C 146.353,107.803 141.02,111.97 135.5,116C 134.177,116.816 133.511,117.983 133.5,119.5C 130.802,119.845 128.802,121.178 127.5,123.5C 126.596,124.209 126.263,125.209 126.5,126.5C 125.839,125.282 125.172,123.949 124.5,122.5C 123.482,123.193 122.482,123.859 121.5,124.5C 121.5,124.167 121.5,123.833 121.5,123.5C 121.833,122.833 122.167,122.167 122.5,121.5C 124.595,120.588 126.595,119.421 128.5,118C 136.692,111.302 144.692,104.469 152.5,97.5C 154.749,96.9202 156.415,95.5869 157.5,93.5 Z"/></g>
<g><path style="opacity:1" fill="#92c2dc" d="M 31.5,97.5 C 31.8333,97.5 32.1667,97.5 32.5,97.5C 32.0269,98.9063 31.0269,99.573 29.5,99.5C 29.8333,98.5 30.5,97.8333 31.5,97.5 Z"/></g>
<g><path style="opacity:1" fill="#348cbd" d="M 42.5,93.5 C 43.8333,93.5 45.1667,93.5 46.5,93.5C 41.7663,95.6999 37.0996,98.1999 32.5,101C 31.2068,101.49 29.8734,101.657 28.5,101.5C 28.8333,100.833 29.1667,100.167 29.5,99.5C 31.0269,99.573 32.0269,98.9063 32.5,97.5C 32.8333,97.5 33.1667,97.5 33.5,97.5C 35.0269,97.573 36.0269,96.9063 36.5,95.5C 36.8333,95.5 37.1667,95.5 37.5,95.5C 39.403,95.2041 41.0697,94.5375 42.5,93.5 Z"/></g>
<g><path style="opacity:1" fill="#1d81b6" d="M 169.5,91.5 C 170.461,93.2646 170.795,95.2646 170.5,97.5C 168.738,98.2623 167.738,99.5956 167.5,101.5C 166.728,102.694 165.728,103.694 164.5,104.5C 166.353,100.225 168.02,95.8916 169.5,91.5 Z"/></g>
<g><path style="opacity:1" fill="#6dafd0" d="M 211.5,97.5 C 211.027,98.9063 210.027,99.573 208.5,99.5C 208.973,98.0937 209.973,97.427 211.5,97.5 Z"/></g>
<g><path style="opacity:1" fill="#2f8abb" d="M 220.5,93.5 C 216.832,97.0518 212.499,99.7185 207.5,101.5C 207.833,100.833 208.167,100.167 208.5,99.5C 210.027,99.573 211.027,98.9063 211.5,97.5C 213.027,97.573 214.027,96.9063 214.5,95.5C 215.167,95.1667 215.833,94.8333 216.5,94.5C 217.833,94.1667 219.167,93.8333 220.5,93.5 Z"/></g>
<g><path style="opacity:1" fill="#8cbfda" d="M 226.5,97.5 C 226.167,98.1667 225.833,98.8333 225.5,99.5C 225.167,99.5 224.833,99.5 224.5,99.5C 224.167,99.5 223.833,99.5 223.5,99.5C 223.973,98.0937 224.973,97.427 226.5,97.5 Z"/></g>
<g><path style="opacity:1" fill="#509ec7" d="M 86.5,92.5 C 87.4614,94.2646 87.7947,96.2646 87.5,98.5C 87.5,98.8333 87.5,99.1667 87.5,99.5C 86.8333,99.8333 86.1667,100.167 85.5,100.5C 86.2653,97.9039 86.5987,95.2372 86.5,92.5 Z"/></g>
<g><path style="opacity:1" fill="#bddbea" d="M 152.5,95.5 C 152.833,95.5 153.167,95.5 153.5,95.5C 153.167,96.1667 152.833,96.8333 152.5,97.5C 141.629,104.367 131.629,112.367 122.5,121.5C 121.391,121.557 120.391,121.89 119.5,122.5C 119.5,122.167 119.5,121.833 119.5,121.5C 129.901,112.102 140.901,103.435 152.5,95.5 Z"/></g>
<g><path style="opacity:1" fill="#6aaccf" d="M 170.5,97.5 C 170.5,98.1667 170.5,98.8333 170.5,99.5C 169.5,100.167 168.5,100.833 167.5,101.5C 167.738,99.5956 168.738,98.2623 170.5,97.5 Z"/></g>
<g><path style="opacity:1" fill="#aad0e4" d="M 29.5,99.5 C 29.1667,100.167 28.8333,100.833 28.5,101.5C 26.5,101.5 25.5,102.5 25.5,104.5C 24.8333,104.833 24.1667,105.167 23.5,105.5C 23.5569,104.391 23.8902,103.391 24.5,102.5C 25.6594,100.75 27.326,99.7497 29.5,99.5 Z"/></g>
<g><path style="opacity:1" fill="#99c7de" d="M 87.5,99.5 C 87.1667,101.833 85.8333,103.167 83.5,103.5C 84.1667,102.5 84.8333,101.5 85.5,100.5C 86.1667,100.167 86.8333,99.8333 87.5,99.5 Z"/></g>
<g><path style="opacity:1" fill="#71b0d2" d="M 208.5,99.5 C 208.167,100.167 207.833,100.833 207.5,101.5C 206.833,101.5 206.167,101.5 205.5,101.5C 205.973,100.094 206.973,99.427 208.5,99.5 Z"/></g>
<g><path style="opacity:1" fill="#aed2e5" d="M 170.5,99.5 C 170.262,101.404 169.262,102.738 167.5,103.5C 167.5,102.833 167.5,102.167 167.5,101.5C 168.5,100.833 169.5,100.167 170.5,99.5 Z"/></g>
<g><path style="opacity:1" fill="#c1dceb" d="M 219.5,91.5 C 218.306,92.2719 217.306,93.2719 216.5,94.5C 215.833,94.8333 215.167,95.1667 214.5,95.5C 212.973,95.427 211.973,96.0937 211.5,97.5C 209.973,97.427 208.973,98.0937 208.5,99.5C 206.973,99.427 205.973,100.094 205.5,101.5C 197.311,107.109 189.645,113.442 182.5,120.5C 184.893,116.598 187.893,113.098 191.5,110C 198.88,103.56 206.713,97.7266 215,92.5C 216.44,91.8524 217.94,91.5191 219.5,91.5 Z"/></g>
<g><path style="opacity:1" fill="#67aace" d="M 236.5,95.5 C 237.461,97.2646 237.795,99.2646 237.5,101.5C 236.094,101.973 235.427,102.973 235.5,104.5C 234.167,105.5 232.833,106.5 231.5,107.5C 232.806,105.184 234.139,102.85 235.5,100.5C 236.451,99.0813 236.784,97.4147 236.5,95.5 Z"/></g>
<g><path style="opacity:1" fill="#66aacd" d="M 58.5,103.5 C 62.2984,102.517 66.2984,102.183 70.5,102.5C 71.0838,105.285 70.0838,106.952 67.5,107.5C 68.1408,106.518 68.8075,105.518 69.5,104.5C 65.8927,103.511 62.226,103.177 58.5,103.5 Z"/></g>
<g><path style="opacity:1" fill="#197eb4" d="M 79.5,90.5 C 81.1667,90.5 82.8333,90.5 84.5,90.5C 85.1667,91.1667 85.8333,91.8333 86.5,92.5C 86.5987,95.2372 86.2653,97.9039 85.5,100.5C 84.8333,101.5 84.1667,102.5 83.5,103.5C 82.8333,103.5 82.1667,103.5 81.5,103.5C 79.9731,103.427 78.9731,104.094 78.5,105.5C 77.8333,105.5 77.1667,105.5 76.5,105.5C 75.8333,105.5 75.1667,105.5 74.5,105.5C 72.744,104.448 72.0773,102.781 72.5,100.5C 80.9484,104.63 85.2817,101.963 85.5,92.5C 83.2143,92.405 81.2143,91.7384 79.5,90.5 Z"/></g>
<g><path style="opacity:1" fill="#8fc1db" d="M 221.5,99.5 C 221.833,99.5 222.167,99.5 222.5,99.5C 221.5,100.833 220.5,102.167 219.5,103.5C 218.833,103.5 218.167,103.5 217.5,103.5C 218.167,102.5 218.833,101.5 219.5,100.5C 220.167,100.167 220.833,99.8333 221.5,99.5 Z"/></g>
<g><path style="opacity:1" fill="#d1e6f0" d="M 222.5,99.5 C 222.833,99.5 223.167,99.5 223.5,99.5C 223.833,99.5 224.167,99.5 224.5,99.5C 223.415,101.587 221.749,102.92 219.5,103.5C 220.5,102.167 221.5,100.833 222.5,99.5 Z"/></g>
<g><path style="opacity:1" fill="#57a2c9" d="M 28.5,101.5 C 27.8333,102.833 26.8333,103.833 25.5,104.5C 25.5,102.5 26.5,101.5 28.5,101.5 Z"/></g>
<g><path style="opacity:1" fill="#c0dbea" d="M 58.5,103.5 C 62.226,103.177 65.8927,103.511 69.5,104.5C 68.8075,105.518 68.1408,106.518 67.5,107.5C 65.8958,108.287 65.2291,109.62 65.5,111.5C 67.5648,111.483 69.5648,111.15 71.5,110.5C 69.9103,112.821 67.5769,113.821 64.5,113.5C 64.5,111.5 64.5,109.5 64.5,107.5C 65.6266,106.878 66.6266,106.045 67.5,105C 63.4761,104.503 59.4761,104.669 55.5,105.5C 56.5,104.833 57.5,104.167 58.5,103.5 Z"/></g>
<g><path style="opacity:1" fill="#54a0c8" d="M 155.5,105.5 C 154.817,103.824 153.483,103.157 151.5,103.5C 152.78,102.069 154.447,101.402 156.5,101.5C 156.768,103.099 156.434,104.432 155.5,105.5 Z"/></g>
<g><path style="opacity:1" fill="#84bbd8" d="M 54.5,103.5 C 55.8333,103.5 57.1667,103.5 58.5,103.5C 57.5,104.167 56.5,104.833 55.5,105.5C 54.1667,105.5 52.8333,105.5 51.5,105.5C 52.5,104.833 53.5,104.167 54.5,103.5 Z"/></g>
<g><path style="opacity:1" fill="#6aaccf" d="M 81.5,103.5 C 81.1667,104.167 80.8333,104.833 80.5,105.5C 79.8333,105.5 79.1667,105.5 78.5,105.5C 78.9731,104.094 79.9731,103.427 81.5,103.5 Z"/></g>
<g><path style="opacity:1" fill="#a2cce1" d="M 81.5,103.5 C 82.1667,103.5 82.8333,103.5 83.5,103.5C 83.0269,104.906 82.0269,105.573 80.5,105.5C 80.8333,104.833 81.1667,104.167 81.5,103.5 Z"/></g>
<g><path style="opacity:1" fill="#5ea5cb" d="M 152.5,97.5 C 144.692,104.469 136.692,111.302 128.5,118C 126.595,119.421 124.595,120.588 122.5,121.5C 131.629,112.367 141.629,104.367 152.5,97.5 Z"/></g>
<g><path style="opacity:1" fill="#61a7cc" d="M 205.5,101.5 C 194.866,110.467 184.866,120.134 175.5,130.5C 175.557,129.391 175.89,128.391 176.5,127.5C 178.543,126.421 179.876,124.754 180.5,122.5C 181.5,122.167 182.167,121.5 182.5,120.5C 189.645,113.442 197.311,107.109 205.5,101.5 Z"/></g>
<g><path style="opacity:1" fill="#318bbc" d="M 54.5,103.5 C 53.5,104.167 52.5,104.833 51.5,105.5C 51.1667,105.5 50.8333,105.5 50.5,105.5C 47.145,105.69 44.145,106.69 41.5,108.5C 40.8333,108.5 40.1667,108.5 39.5,108.5C 40.5736,107.115 41.9069,105.949 43.5,105C 47.1704,104.452 50.8371,103.952 54.5,103.5 Z"/></g>
<g><path style="opacity:1" fill="#e2eef5" d="M 64.5,107.5 C 64.38,106.414 63.7133,105.747 62.5,105.5C 56.7708,106.257 51.1041,107.257 45.5,108.5C 47.2608,107.687 48.9275,106.687 50.5,105.5C 50.8333,105.5 51.1667,105.5 51.5,105.5C 52.8333,105.5 54.1667,105.5 55.5,105.5C 59.4761,104.669 63.4761,104.503 67.5,105C 66.6266,106.045 65.6266,106.878 64.5,107.5 Z"/></g>
<g><path style="opacity:1" fill="#4b9ac5" d="M 219.5,100.5 C 218.833,101.5 218.167,102.5 217.5,103.5C 214.397,105.423 211.397,107.59 208.5,110C 203.161,115.166 198.161,120.666 193.5,126.5C 193.167,126.5 192.833,126.5 192.5,126.5C 196.913,120.183 201.913,114.35 207.5,109C 211.12,105.533 215.12,102.7 219.5,100.5 Z"/></g>
<g><path style="opacity:1" fill="#8fc1db" d="M 50.5,105.5 C 48.9275,106.687 47.2608,107.687 45.5,108.5C 44.1667,108.833 42.8333,109.167 41.5,109.5C 41.5,109.167 41.5,108.833 41.5,108.5C 44.145,106.69 47.145,105.69 50.5,105.5 Z"/></g>
<g><path style="opacity:1" fill="#60a7cc" d="M 74.5,105.5 C 75.1667,105.5 75.8333,105.5 76.5,105.5C 76.1667,106.167 75.8333,106.833 75.5,107.5C 74.8333,107.5 74.1667,107.5 73.5,107.5C 73.8333,106.833 74.1667,106.167 74.5,105.5 Z"/></g>
<g><path style="opacity:1" fill="#97c5dd" d="M 76.5,105.5 C 77.1667,105.5 77.8333,105.5 78.5,105.5C 78.0269,106.906 77.0269,107.573 75.5,107.5C 75.8333,106.833 76.1667,106.167 76.5,105.5 Z"/></g>
<g><path style="opacity:1" fill="#c1dae9" d="M 152.5,109.5 C 151.833,109.833 151.167,110.167 150.5,110.5C 150.631,109.761 150.464,109.094 150,108.5C 149.329,109.252 148.496,109.586 147.5,109.5C 149.429,107.852 151.429,106.185 153.5,104.5C 153.833,104.833 154.167,105.167 154.5,105.5C 153.37,106.622 152.703,107.956 152.5,109.5 Z"/></g>
<g><path style="opacity:1" fill="#b4d6e6" d="M 167.5,104.5 C 167.573,106.027 166.906,107.027 165.5,107.5C 165.427,105.973 166.094,104.973 167.5,104.5 Z"/></g>
<g><path style="opacity:1" fill="#a9cfe3" d="M 217.5,103.5 C 211.102,108.896 205.435,114.896 200.5,121.5C 198.167,123.5 195.833,125.5 193.5,127.5C 193.5,127.167 193.5,126.833 193.5,126.5C 198.161,120.666 203.161,115.166 208.5,110C 211.397,107.59 214.397,105.423 217.5,103.5 Z"/></g>
<g><path style="opacity:1" fill="#e5f1f7" d="M 24.5,102.5 C 23.8902,103.391 23.5569,104.391 23.5,105.5C 23.5,106.167 23.5,106.833 23.5,107.5C 22.0687,108.78 21.4021,110.447 21.5,112.5C 20.5269,114.948 20.1936,117.615 20.5,120.5C 19.344,115.956 19.5107,111.289 21,106.5C 21.7403,104.681 22.9069,103.348 24.5,102.5 Z"/></g>
<g><path style="opacity:1" fill="#298abb" d="M 72.5,100.5 C 72.0773,102.781 72.744,104.448 74.5,105.5C 74.1667,106.167 73.8333,106.833 73.5,107.5C 71.9064,107.92 70.4064,108.586 69,109.5C 67.9701,109.164 67.4701,108.497 67.5,107.5C 70.0838,106.952 71.0838,105.285 70.5,102.5C 66.2984,102.183 62.2984,102.517 58.5,103.5C 57.1667,103.5 55.8333,103.5 54.5,103.5C 60.1989,101.532 66.1989,100.532 72.5,100.5 Z"/></g>
<g><path style="opacity:1" fill="#62a8cc" d="M 167.5,101.5 C 167.5,102.167 167.5,102.833 167.5,103.5C 167.5,103.833 167.5,104.167 167.5,104.5C 166.094,104.973 165.427,105.973 165.5,107.5C 164.833,107.833 164.167,108.167 163.5,108.5C 163.557,107.391 163.89,106.391 164.5,105.5C 164.5,105.167 164.5,104.833 164.5,104.5C 165.728,103.694 166.728,102.694 167.5,101.5 Z"/></g>
<g><path style="opacity:1" fill="#bad9e9" d="M 245.5,92.5 C 246.486,96.97 246.819,101.637 246.5,106.5C 245.5,107.833 244.5,109.167 243.5,110.5C 243.5,109.833 243.5,109.167 243.5,108.5C 243.5,107.833 243.5,107.167 243.5,106.5C 244.338,106.158 244.672,105.492 244.5,104.5C 245.483,100.702 245.817,96.7016 245.5,92.5 Z"/></g>
<g><path style="opacity:1" fill="#dfedf4" d="M 89.5,90.5 C 92.0253,97.5469 89.8586,102.88 83,106.5C 79.1937,108.157 75.3604,109.49 71.5,110.5C 72.1667,109.5 72.8333,108.5 73.5,107.5C 74.1667,107.5 74.8333,107.5 75.5,107.5C 77.0269,107.573 78.0269,106.906 78.5,105.5C 79.1667,105.5 79.8333,105.5 80.5,105.5C 82.0269,105.573 83.0269,104.906 83.5,103.5C 85.8333,103.167 87.1667,101.833 87.5,99.5C 87.5,99.1667 87.5,98.8333 87.5,98.5C 87.8333,98.5 88.1667,98.5 88.5,98.5C 89.4731,96.0521 89.8064,93.3854 89.5,90.5 Z"/></g>
<g><path style="opacity:1" fill="#368fbe" d="M 235.5,104.5 C 234.581,107.089 232.914,109.089 230.5,110.5C 230.5,110.167 230.5,109.833 230.5,109.5C 230.833,108.833 231.167,108.167 231.5,107.5C 232.833,106.5 234.167,105.5 235.5,104.5 Z"/></g>
<g><path style="opacity:1" fill="#66accf" d="M 67.5,107.5 C 67.4701,108.497 67.9701,109.164 69,109.5C 70.4064,108.586 71.9064,107.92 73.5,107.5C 72.8333,108.5 72.1667,109.5 71.5,110.5C 69.5648,111.15 67.5648,111.483 65.5,111.5C 65.2291,109.62 65.8958,108.287 67.5,107.5 Z"/></g>
<g><path style="opacity:1" fill="#a7cee3" d="M 165.5,107.5 C 164.492,109.544 163.492,111.544 162.5,113.5C 162.5,112.833 162.5,112.167 162.5,111.5C 162.557,110.391 162.89,109.391 163.5,108.5C 164.167,108.167 164.833,107.833 165.5,107.5 Z"/></g>
<g><path style="opacity:1" fill="#4999c4" d="M 25.5,104.5 C 25.0733,107.01 24.4067,109.343 23.5,111.5C 23.5,110.167 23.5,108.833 23.5,107.5C 23.5,106.833 23.5,106.167 23.5,105.5C 24.1667,105.167 24.8333,104.833 25.5,104.5 Z"/></g>
<g><path style="opacity:1" fill="#a3cce1" d="M 40.5,109.5 C 40.1667,110.167 39.8333,110.833 39.5,111.5C 38.8333,111.5 38.1667,111.5 37.5,111.5C 37.9731,110.094 38.9731,109.427 40.5,109.5 Z"/></g>
<g><path style="opacity:1" fill="#dbebf3" d="M 45.5,108.5 C 43.9674,110.245 41.9674,111.245 39.5,111.5C 39.8333,110.833 40.1667,110.167 40.5,109.5C 40.8333,109.5 41.1667,109.5 41.5,109.5C 42.8333,109.167 44.1667,108.833 45.5,108.5 Z"/></g>
<g><path style="opacity:1" fill="#aed2e5" d="M 230.5,107.5 C 230.833,107.5 231.167,107.5 231.5,107.5C 231.167,108.167 230.833,108.833 230.5,109.5C 228.167,111.5 225.833,113.5 223.5,115.5C 225.094,112.236 227.427,109.569 230.5,107.5 Z"/></g>
<g><path style="opacity:1" fill="#89bed9" d="M 243.5,108.5 C 243.5,109.167 243.5,109.833 243.5,110.5C 242.833,110.833 242.167,111.167 241.5,111.5C 241.427,109.973 242.094,108.973 243.5,108.5 Z"/></g>
<g><path style="opacity:1" fill="#539fc7" d="M 39.5,108.5 C 40.1667,108.5 40.8333,108.5 41.5,108.5C 41.5,108.833 41.5,109.167 41.5,109.5C 41.1667,109.5 40.8333,109.5 40.5,109.5C 38.9731,109.427 37.9731,110.094 37.5,111.5C 34.2244,112.122 32.8911,114.122 33.5,117.5C 31.6558,116.796 31.1558,115.463 32,113.5C 34.1277,111.192 36.6277,109.526 39.5,108.5 Z"/></g>
<g><path style="opacity:1" fill="#6cadcf" d="M 151.5,103.5 C 153.483,103.157 154.817,103.824 155.5,105.5C 155.262,107.404 154.262,108.738 152.5,109.5C 152.703,107.956 153.37,106.622 154.5,105.5C 154.167,105.167 153.833,104.833 153.5,104.5C 151.429,106.185 149.429,107.852 147.5,109.5C 144.573,110.757 142.239,112.757 140.5,115.5C 139.508,115.328 138.842,115.662 138.5,116.5C 136.589,117.075 134.922,118.075 133.5,119.5C 133.511,117.983 134.177,116.816 135.5,116C 141.02,111.97 146.353,107.803 151.5,103.5 Z"/></g>
<g><path style="opacity:1" fill="#8bbed9" d="M 23.5,107.5 C 23.5,108.833 23.5,110.167 23.5,111.5C 22.2737,115.367 22.2737,119.367 23.5,123.5C 22.8826,123.389 22.3826,123.056 22,122.5C 21.5017,119.183 21.335,115.85 21.5,112.5C 21.4021,110.447 22.0687,108.78 23.5,107.5 Z"/></g>
<g><path style="opacity:1" fill="#c7e0ed" d="M 147.5,109.5 C 145.761,112.243 143.427,114.243 140.5,115.5C 142.239,112.757 144.573,110.757 147.5,109.5 Z"/></g>
<g><path style="opacity:1" fill="#f3f8fb" d="M 150.5,110.5 C 149.248,112.001 148.248,113.668 147.5,115.5C 145.103,117.662 143.436,120.329 142.5,123.5C 138.958,123.813 135.625,123.479 132.5,122.5C 132.5,122.167 132.5,121.833 132.5,121.5C 135.089,120.581 137.089,118.914 138.5,116.5C 138.842,115.662 139.508,115.328 140.5,115.5C 143.427,114.243 145.761,112.243 147.5,109.5C 148.496,109.586 149.329,109.252 150,108.5C 150.464,109.094 150.631,109.761 150.5,110.5 Z"/></g>
<g><path style="opacity:1" fill="#9cc8df" d="M 152.5,109.5 C 152.5,110.167 152.5,110.833 152.5,111.5C 150.605,112.973 148.939,114.64 147.5,116.5C 147.5,116.167 147.5,115.833 147.5,115.5C 148.248,113.668 149.248,112.001 150.5,110.5C 151.167,110.167 151.833,109.833 152.5,109.5 Z"/></g>
<g><path style="opacity:1" fill="#76b3d3" d="M 162.5,111.5 C 162.5,112.167 162.5,112.833 162.5,113.5C 161.5,114.167 160.5,114.833 159.5,115.5C 159.738,113.596 160.738,112.262 162.5,111.5 Z"/></g>
<g><path style="opacity:1" fill="#b1d2e5" d="M 37.5,111.5 C 36.5244,112.815 35.5244,114.148 34.5,115.5C 34.8627,116.183 35.1961,116.85 35.5,117.5C 34.8333,117.5 34.1667,117.5 33.5,117.5C 32.8911,114.122 34.2244,112.122 37.5,111.5 Z"/></g>
<g><path style="opacity:1" fill="#5ea5cb" d="M 230.5,109.5 C 230.5,109.833 230.5,110.167 230.5,110.5C 228.115,113.212 225.782,115.878 223.5,118.5C 217.93,117.411 213.93,119.411 211.5,124.5C 210.609,125.11 209.609,125.443 208.5,125.5C 211.707,119.914 216.374,116.914 222.5,116.5C 222.5,115.833 222.833,115.5 223.5,115.5C 225.833,113.5 228.167,111.5 230.5,109.5 Z"/></g>
<g><path style="opacity:1" fill="#e0eef5" d="M 243.5,110.5 C 243.245,112.967 242.245,114.967 240.5,116.5C 241.038,114.883 241.371,113.216 241.5,111.5C 242.167,111.167 242.833,110.833 243.5,110.5 Z"/></g>
<g><path style="opacity:1" fill="#3e94c1" d="M 23.5,111.5 C 23.0792,115.742 23.7459,119.742 25.5,123.5C 24.8333,123.5 24.1667,123.5 23.5,123.5C 22.2737,119.367 22.2737,115.367 23.5,111.5 Z"/></g>
<g><path style="opacity:1" fill="#b2d4e6" d="M 241.5,111.5 C 241.371,113.216 241.038,114.883 240.5,116.5C 239.5,117.167 238.5,117.833 237.5,118.5C 238.584,115.996 239.917,113.663 241.5,111.5 Z"/></g>
<g><path style="opacity:1" fill="#5aa4ca" d="M 33.5,117.5 C 34.1667,117.5 34.8333,117.5 35.5,117.5C 35.8333,118.167 36.1667,118.833 36.5,119.5C 34.9731,119.573 33.9731,118.906 33.5,117.5 Z"/></g>
<g><path style="opacity:1" fill="#85bad7" d="M 35.5,117.5 C 38.4021,118.578 41.4021,119.244 44.5,119.5C 44.5,119.833 44.5,120.167 44.5,120.5C 43.1667,120.5 41.8333,120.5 40.5,120.5C 38.901,120.768 37.5676,120.434 36.5,119.5C 36.1667,118.833 35.8333,118.167 35.5,117.5 Z"/></g>
<g><path style="opacity:1" fill="#ddecf4" d="M 37.5,111.5 C 38.1667,111.5 38.8333,111.5 39.5,111.5C 38.5244,112.815 37.5244,114.148 36.5,115.5C 39.2497,116.875 41.9163,118.208 44.5,119.5C 41.4021,119.244 38.4021,118.578 35.5,117.5C 35.1961,116.85 34.8627,116.183 34.5,115.5C 35.5244,114.148 36.5244,112.815 37.5,111.5 Z"/></g>
<g><path style="opacity:1" fill="#82bad7" d="M 147.5,117.5 C 147.573,119.027 146.906,120.027 145.5,120.5C 145.427,118.973 146.094,117.973 147.5,117.5 Z"/></g>
<g><path style="opacity:1" fill="#338bbc" d="M 152.5,111.5 C 152.657,112.873 152.49,114.207 152,115.5C 150.281,118.288 148.115,120.621 145.5,122.5C 145.5,122.167 145.5,121.833 145.5,121.5C 145.5,121.167 145.5,120.833 145.5,120.5C 146.906,120.027 147.573,119.027 147.5,117.5C 147.5,117.167 147.5,116.833 147.5,116.5C 148.939,114.64 150.605,112.973 152.5,111.5 Z"/></g>
<g><path style="opacity:1" fill="#e1eef5" d="M 119.5,121.5 C 119.5,121.833 119.5,122.167 119.5,122.5C 118.5,122.833 117.833,123.5 117.5,124.5C 116.1,123.9 115.1,122.9 114.5,121.5C 111.43,121.368 108.43,121.701 105.5,122.5C 105.611,121.883 105.944,121.383 106.5,121C 110.871,120.371 115.204,120.537 119.5,121.5 Z"/></g>
<g><path style="opacity:1" fill="#54a0c8" d="M 133.5,119.5 C 133.167,120.167 132.833,120.833 132.5,121.5C 130.167,121.833 128.833,123.167 128.5,125.5C 127.662,125.158 127.328,124.492 127.5,123.5C 128.802,121.178 130.802,119.845 133.5,119.5 Z"/></g>
<g><path style="opacity:1" fill="#bbd9e8" d="M 138.5,116.5 C 137.089,118.914 135.089,120.581 132.5,121.5C 132.833,120.833 133.167,120.167 133.5,119.5C 134.922,118.075 136.589,117.075 138.5,116.5 Z"/></g>
<g><path style="opacity:1" fill="#2083b7" d="M 223.5,118.5 C 219.177,119.687 215.177,121.687 211.5,124.5C 213.93,119.411 217.93,117.411 223.5,118.5 Z"/></g>
<g><path style="opacity:1" fill="#4c9cc5" d="M 40.5,120.5 C 41.8333,120.5 43.1667,120.5 44.5,120.5C 45.5,121.167 46.5,121.833 47.5,122.5C 44.8478,122.59 42.5145,121.924 40.5,120.5 Z"/></g>
<g><path style="opacity:1" fill="#85bbd8" d="M 44.5,120.5 C 45.8333,120.5 47.1667,120.5 48.5,120.5C 50.5,121.5 52.5,122.5 54.5,123.5C 52.139,123.326 49.8056,122.993 47.5,122.5C 46.5,121.833 45.5,121.167 44.5,120.5 Z"/></g>
<g><path style="opacity:1" fill="#c0dceb" d="M 48.5,120.5 C 49.8333,120.5 51.1667,120.5 52.5,120.5C 54.5,121.5 56.5,122.5 58.5,123.5C 57.1667,123.5 55.8333,123.5 54.5,123.5C 52.5,122.5 50.5,121.5 48.5,120.5 Z"/></g>
<g><path style="opacity:1" fill="#2585b8" d="M 164.5,105.5 C 163.89,106.391 163.557,107.391 163.5,108.5C 162.89,109.391 162.557,110.391 162.5,111.5C 160.738,112.262 159.738,113.596 159.5,115.5C 158.833,116.833 158.167,118.167 157.5,119.5C 155.787,120.635 155.12,122.302 155.5,124.5C 157.833,124.5 160.167,124.5 162.5,124.5C 161.957,127.038 160.957,129.372 159.5,131.5C 159.167,131.5 158.833,131.5 158.5,131.5C 158.421,130.07 158.754,128.736 159.5,127.5C 154.428,127.602 152.595,125.269 154,120.5C 157.06,115.05 160.56,110.05 164.5,105.5 Z"/></g>
<g><path style="opacity:1" fill="#b7d7e7" d="M 114.5,121.5 C 115.1,122.9 116.1,123.9 117.5,124.5C 117.5,124.833 117.5,125.167 117.5,125.5C 116.833,125.5 116.167,125.5 115.5,125.5C 114.624,125.631 113.957,125.298 113.5,124.5C 114.127,123.583 114.461,122.583 114.5,121.5 Z"/></g>
<g><path style="opacity:1" fill="#7eb7d5" d="M 122.5,121.5 C 122.167,122.167 121.833,122.833 121.5,123.5C 119.938,123.733 118.605,124.4 117.5,125.5C 117.5,125.167 117.5,124.833 117.5,124.5C 117.833,123.5 118.5,122.833 119.5,122.5C 120.391,121.89 121.391,121.557 122.5,121.5 Z"/></g>
<g><path style="opacity:1" fill="#c0dceb" d="M 147.5,115.5 C 147.5,115.833 147.5,116.167 147.5,116.5C 147.5,116.833 147.5,117.167 147.5,117.5C 146.094,117.973 145.427,118.973 145.5,120.5C 145.5,120.833 145.5,121.167 145.5,121.5C 144.5,122.167 143.5,122.833 142.5,123.5C 143.436,120.329 145.103,117.662 147.5,115.5 Z"/></g>
<g><path style="opacity:1" fill="#b0d3e5" d="M 162.5,113.5 C 160.371,116.095 159.038,119.095 158.5,122.5C 160.415,122.216 162.081,122.549 163.5,123.5C 161.076,123.808 158.743,123.474 156.5,122.5C 157.127,121.583 157.461,120.583 157.5,119.5C 158.167,118.167 158.833,116.833 159.5,115.5C 160.5,114.833 161.5,114.167 162.5,113.5 Z"/></g>
<g><path style="opacity:1" fill="#d2e6f0" d="M 21.5,112.5 C 21.335,115.85 21.5017,119.183 22,122.5C 22.3826,123.056 22.8826,123.389 23.5,123.5C 23.9731,124.906 24.9731,125.573 26.5,125.5C 28.0418,126.301 29.7085,126.634 31.5,126.5C 32.5,127.167 33.5,127.833 34.5,128.5C 29.4388,129.335 25.1055,128.001 21.5,124.5C 20.5713,123.311 20.238,121.978 20.5,120.5C 20.1936,117.615 20.5269,114.948 21.5,112.5 Z"/></g>
<g><path style="opacity:1" fill="#2e8bbc" d="M 47.5,122.5 C 49.8056,122.993 52.139,123.326 54.5,123.5C 54.5,123.833 54.5,124.167 54.5,124.5C 51.7718,124.829 49.4385,124.163 47.5,122.5 Z"/></g>
<g><path style="opacity:1" fill="#65a9cd" d="M 54.5,124.5 C 54.5,124.167 54.5,123.833 54.5,123.5C 55.8333,123.5 57.1667,123.5 58.5,123.5C 59.5,124.167 60.5,124.833 61.5,125.5C 59.139,125.326 56.8056,124.993 54.5,124.5 Z"/></g>
<g><path style="opacity:1" fill="#a8cfe3" d="M 58.5,123.5 C 61.1522,123.41 63.4855,124.076 65.5,125.5C 64.8333,125.5 64.1667,125.5 63.5,125.5C 62.8333,125.5 62.1667,125.5 61.5,125.5C 60.5,124.833 59.5,124.167 58.5,123.5 Z"/></g>
<g><path style="opacity:1" fill="#e4f0f6" d="M 52.5,120.5 C 56.7962,121.43 61.1296,122.263 65.5,123C 67.3187,123.74 68.6521,124.907 69.5,126.5C 68.1667,126.167 66.8333,125.833 65.5,125.5C 63.4855,124.076 61.1522,123.41 58.5,123.5C 56.5,122.5 54.5,121.5 52.5,120.5 Z"/></g>
<g><path style="opacity:1" fill="#cde4ef" d="M 105.5,122.5 C 105.5,122.833 105.5,123.167 105.5,123.5C 103.62,123.229 102.287,123.896 101.5,125.5C 100.391,125.557 99.391,125.89 98.5,126.5C 99.8094,123.549 102.143,122.216 105.5,122.5 Z"/></g>
<g><path style="opacity:1" fill="#c3ddeb" d="M 132.5,122.5 C 135.625,123.479 138.958,123.813 142.5,123.5C 142.158,124.338 141.492,124.672 140.5,124.5C 137.15,124.665 133.817,124.498 130.5,124C 131.044,123.283 131.711,122.783 132.5,122.5 Z"/></g>
<g><path style="opacity:1" fill="#62a8cc" d="M 145.5,121.5 C 145.5,121.833 145.5,122.167 145.5,122.5C 144.833,123.5 144.167,124.5 143.5,125.5C 142.5,125.5 141.5,125.5 140.5,125.5C 140.5,125.167 140.5,124.833 140.5,124.5C 141.492,124.672 142.158,124.338 142.5,123.5C 143.5,122.833 144.5,122.167 145.5,121.5 Z"/></g>
<g><path style="opacity:1" fill="#74b2d2" d="M 157.5,119.5 C 157.461,120.583 157.127,121.583 156.5,122.5C 158.743,123.474 161.076,123.808 163.5,123.5C 164.808,125.638 164.475,127.638 162.5,129.5C 161.5,130.167 160.5,130.833 159.5,131.5C 160.957,129.372 161.957,127.038 162.5,124.5C 160.167,124.5 157.833,124.5 155.5,124.5C 155.12,122.302 155.787,120.635 157.5,119.5 Z"/></g>
<g><path style="opacity:1" fill="#56a1c8" d="M 242.5,106.5 C 242.833,106.5 243.167,106.5 243.5,106.5C 243.5,107.167 243.5,107.833 243.5,108.5C 242.094,108.973 241.427,109.973 241.5,111.5C 239.917,113.663 238.584,115.996 237.5,118.5C 236.5,118.833 235.833,119.5 235.5,120.5C 231.173,124.822 226.506,128.822 221.5,132.5C 221.5,132.167 221.5,131.833 221.5,131.5C 229.731,124.213 236.731,115.88 242.5,106.5 Z"/></g>
<g><path style="opacity:1" fill="#8dc0da" d="M 23.5,123.5 C 24.1667,123.5 24.8333,123.5 25.5,123.5C 25.8333,124.167 26.1667,124.833 26.5,125.5C 24.9731,125.573 23.9731,124.906 23.5,123.5 Z"/></g>
<g><path style="opacity:1" fill="#4a99c3" d="M 25.5,123.5 C 29.0835,124.007 32.4168,125.007 35.5,126.5C 34.1667,126.5 32.8333,126.5 31.5,126.5C 29.7085,126.634 28.0418,126.301 26.5,125.5C 26.1667,124.833 25.8333,124.167 25.5,123.5 Z"/></g>
<g><path style="opacity:1" fill="#93c1db" d="M 132.5,121.5 C 132.5,121.833 132.5,122.167 132.5,122.5C 131.711,122.783 131.044,123.283 130.5,124C 133.817,124.498 137.15,124.665 140.5,124.5C 140.5,124.833 140.5,125.167 140.5,125.5C 136.5,125.5 132.5,125.5 128.5,125.5C 128.833,123.167 130.167,121.833 132.5,121.5 Z"/></g>
<g><path style="opacity:1" fill="#83bad7" d="M 63.5,125.5 C 64.1667,125.5 64.8333,125.5 65.5,125.5C 66.8333,125.833 68.1667,126.167 69.5,126.5C 69.5,126.833 69.5,127.167 69.5,127.5C 68.8333,127.5 68.1667,127.5 67.5,127.5C 65.847,127.34 64.5137,126.674 63.5,125.5 Z"/></g>
<g><path style="opacity:1" fill="#95c5dd" d="M 114.5,121.5 C 114.461,122.583 114.127,123.583 113.5,124.5C 113.957,125.298 114.624,125.631 115.5,125.5C 115.5,125.833 115.5,126.167 115.5,126.5C 113.5,126.5 111.5,126.5 109.5,126.5C 109.5,125.5 109.5,124.5 109.5,123.5C 108.167,123.5 106.833,123.5 105.5,123.5C 105.5,123.167 105.5,122.833 105.5,122.5C 108.43,121.701 111.43,121.368 114.5,121.5 Z"/></g>
<g><path style="opacity:1" fill="#c1ddeb" d="M 180.5,122.5 C 179.876,124.754 178.543,126.421 176.5,127.5C 177.136,125.205 178.469,123.539 180.5,122.5 Z"/></g>
<g><path style="opacity:1" fill="#bad9e9" d="M 222.5,116.5 C 216.374,116.914 211.707,119.914 208.5,125.5C 205.573,126.757 203.239,128.757 201.5,131.5C 200.833,131.833 200.167,132.167 199.5,132.5C 199.369,131.761 199.536,131.094 200,130.5C 205.119,126.348 209.952,121.848 214.5,117C 217.146,116.503 219.813,116.336 222.5,116.5 Z"/></g>
<g><path style="opacity:1" fill="#4999c4" d="M 35.5,126.5 C 42.3099,126.635 48.9765,127.635 55.5,129.5C 56.5,130.167 57.5,130.833 58.5,131.5C 57.5,131.5 56.5,131.5 55.5,131.5C 55.1667,131.5 54.8333,131.5 54.5,131.5C 52.4855,130.076 50.1522,129.41 47.5,129.5C 45.5648,128.85 43.5648,128.517 41.5,128.5C 39.5,127.833 37.5,127.167 35.5,126.5 Z"/></g>
<g><path style="opacity:1" fill="#0575af" d="M 76.5,90.5 C 77.5,90.5 78.5,90.5 79.5,90.5C 81.2143,91.7384 83.2143,92.405 85.5,92.5C 85.2817,101.963 80.9484,104.63 72.5,100.5C 66.1989,100.532 60.1989,101.532 54.5,103.5C 50.8371,103.952 47.1704,104.452 43.5,105C 41.9069,105.949 40.5736,107.115 39.5,108.5C 36.6277,109.526 34.1277,111.192 32,113.5C 31.1558,115.463 31.6558,116.796 33.5,117.5C 33.9731,118.906 34.9731,119.573 36.5,119.5C 37.5676,120.434 38.901,120.768 40.5,120.5C 42.5145,121.924 44.8478,122.59 47.5,122.5C 49.4385,124.163 51.7718,124.829 54.5,124.5C 56.8056,124.993 59.139,125.326 61.5,125.5C 62.1667,125.5 62.8333,125.5 63.5,125.5C 64.5137,126.674 65.847,127.34 67.5,127.5C 69.1475,129.326 71.1475,130.66 73.5,131.5C 75.3844,134.901 75.8844,138.567 75,142.5C 71.6365,147.029 67.8031,151.029 63.5,154.5C 57.5076,155.827 51.5076,157.16 45.5,158.5C 34.1898,159.356 22.8565,159.69 11.5,159.5C 8.34612,157.553 7.67945,154.886 9.5,151.5C 10.8333,149.5 12.5,147.833 14.5,146.5C 15.8333,146.5 17.1667,146.5 18.5,146.5C 18.5,147.5 18.5,148.5 18.5,149.5C 26.5069,149.666 34.5069,149.5 42.5,149C 43.7375,148.768 44.7375,148.268 45.5,147.5C 46.1667,147.5 46.8333,147.5 47.5,147.5C 50.1522,147.59 52.4855,146.924 54.5,145.5C 58.1181,144.462 61.7847,143.295 65.5,142C 66.0659,141.005 66.7326,140.172 67.5,139.5C 68.4682,137.393 68.8016,135.059 68.5,132.5C 64.3828,130.874 60.0495,129.874 55.5,129.5C 48.9765,127.635 42.3099,126.635 35.5,126.5C 32.4168,125.007 29.0835,124.007 25.5,123.5C 23.7459,119.742 23.0792,115.742 23.5,111.5C 24.4067,109.343 25.0733,107.01 25.5,104.5C 26.8333,103.833 27.8333,102.833 28.5,101.5C 29.8734,101.657 31.2068,101.49 32.5,101C 37.0996,98.1999 41.7663,95.6999 46.5,93.5C 56.4797,92.3125 66.4797,91.3125 76.5,90.5 Z"/></g>
<g><path style="opacity:1" fill="#6fafd0" d="M 105.5,123.5 C 106.833,123.5 108.167,123.5 109.5,123.5C 109.5,124.5 109.5,125.5 109.5,126.5C 111.5,126.5 113.5,126.5 115.5,126.5C 115.5,126.833 115.5,127.167 115.5,127.5C 111.558,128.143 108.224,127.143 105.5,124.5C 104.584,124.543 103.917,124.876 103.5,125.5C 102.833,125.5 102.167,125.5 101.5,125.5C 102.287,123.896 103.62,123.229 105.5,123.5 Z"/></g>
<g><path style="opacity:1" fill="#3e92c0" d="M 121.5,123.5 C 121.5,123.833 121.5,124.167 121.5,124.5C 119.784,126.025 117.784,127.025 115.5,127.5C 115.5,127.167 115.5,126.833 115.5,126.5C 115.5,126.167 115.5,125.833 115.5,125.5C 116.167,125.5 116.833,125.5 117.5,125.5C 118.605,124.4 119.938,123.733 121.5,123.5 Z"/></g>
<g><path style="opacity:1" fill="#2988ba" d="M 127.5,123.5 C 127.328,124.492 127.662,125.158 128.5,125.5C 132.5,125.5 136.5,125.5 140.5,125.5C 141.5,125.5 142.5,125.5 143.5,125.5C 139.178,126.389 134.678,127.056 130,127.5C 128.615,127.486 127.449,127.152 126.5,126.5C 126.263,125.209 126.596,124.209 127.5,123.5 Z"/></g>
<g><path style="opacity:1" fill="#b5d6e7" d="M 235.5,120.5 C 232.514,124.817 229.18,128.817 225.5,132.5C 222.588,133.429 219.921,134.762 217.5,136.5C 217.5,136.167 217.5,135.833 217.5,135.5C 218.833,134.5 220.167,133.5 221.5,132.5C 226.506,128.822 231.173,124.822 235.5,120.5 Z"/></g>
<g><path style="opacity:1" fill="#99c6de" d="M 31.5,126.5 C 32.8333,126.5 34.1667,126.5 35.5,126.5C 37.5,127.167 39.5,127.833 41.5,128.5C 39.1667,128.5 36.8333,128.5 34.5,128.5C 33.5,127.833 32.5,127.167 31.5,126.5 Z"/></g>
<g><path style="opacity:1" fill="#338ebd" d="M 103.5,125.5 C 103.917,124.876 104.584,124.543 105.5,124.5C 108.224,127.143 111.558,128.143 115.5,127.5C 113.034,128.634 110.367,128.801 107.5,128C 106.692,126.294 105.359,125.461 103.5,125.5 Z"/></g>
<g><path style="opacity:1" fill="#84bbd8" d="M 192.5,126.5 C 192.833,126.5 193.167,126.5 193.5,126.5C 193.5,126.833 193.5,127.167 193.5,127.5C 193.167,128.5 192.5,129.167 191.5,129.5C 191.557,128.391 191.89,127.391 192.5,126.5 Z"/></g>
<g><path style="opacity:1" fill="#56a0c8" d="M 67.5,127.5 C 68.1667,127.5 68.8333,127.5 69.5,127.5C 70.4916,127.328 71.1583,127.662 71.5,128.5C 72.1667,129.5 72.8333,130.5 73.5,131.5C 71.1475,130.66 69.1475,129.326 67.5,127.5 Z"/></g>
<g><path style="opacity:1" fill="#6eafd0" d="M 101.5,125.5 C 99.8333,127.5 98.1667,129.5 96.5,131.5C 95.1667,132.167 94.1667,133.167 93.5,134.5C 93.1667,134.5 92.8333,134.5 92.5,134.5C 92.5,134.167 92.5,133.833 92.5,133.5C 93.8333,131.833 95.1667,130.167 96.5,128.5C 97.5,128.167 98.1667,127.5 98.5,126.5C 99.391,125.89 100.391,125.557 101.5,125.5 Z"/></g>
<g><path style="opacity:1" fill="#2586b8" d="M 101.5,125.5 C 102.167,125.5 102.833,125.5 103.5,125.5C 101.761,128.243 99.4274,130.243 96.5,131.5C 98.1667,129.5 99.8333,127.5 101.5,125.5 Z"/></g>
<g><path style="opacity:1" fill="#56a1c8" d="M 208.5,125.5 C 206.5,128.167 204.167,130.5 201.5,132.5C 201.5,132.167 201.5,131.833 201.5,131.5C 203.239,128.757 205.573,126.757 208.5,125.5 Z"/></g>
<g><path style="opacity:1" fill="#ddecf4" d="M 34.5,128.5 C 36.8333,128.5 39.1667,128.5 41.5,128.5C 43.5648,128.517 45.5648,128.85 47.5,129.5C 49.5145,130.924 51.8478,131.59 54.5,131.5C 54.8333,131.5 55.1667,131.5 55.5,131.5C 56.9303,132.537 58.597,133.204 60.5,133.5C 60.8333,133.5 61.1667,133.5 61.5,133.5C 62.5137,134.674 63.847,135.34 65.5,135.5C 66.5735,136.251 66.7401,137.251 66,138.5C 63.3859,140.556 60.5525,142.223 57.5,143.5C 56.1667,143.5 54.8333,143.5 53.5,143.5C 55.734,141.554 58.4006,140.387 61.5,140C 62.5,139.167 63.5,138.333 64.5,137.5C 64.1667,137.167 63.8333,136.833 63.5,136.5C 53.8459,133.097 44.1792,130.43 34.5,128.5 Z"/></g>
<g><path style="opacity:1" fill="#9bc7df" d="M 47.5,129.5 C 50.1522,129.41 52.4855,130.076 54.5,131.5C 51.8478,131.59 49.5145,130.924 47.5,129.5 Z"/></g>
<g><path style="opacity:1" fill="#cee4ef" d="M 176.5,127.5 C 175.89,128.391 175.557,129.391 175.5,130.5C 174.094,130.973 173.427,131.973 173.5,133.5C 172.662,133.842 172.328,134.508 172.5,135.5C 171.833,135.833 171.167,136.167 170.5,136.5C 171.271,132.61 173.271,129.61 176.5,127.5 Z"/></g>
<g><path style="opacity:1" fill="#9ec9df" d="M 55.5,131.5 C 56.5,131.5 57.5,131.5 58.5,131.5C 58.8333,131.5 59.1667,131.5 59.5,131.5C 59.8333,132.167 60.1667,132.833 60.5,133.5C 58.597,133.204 56.9303,132.537 55.5,131.5 Z"/></g>
<g><path style="opacity:1" fill="#2484b8" d="M 55.5,129.5 C 60.0495,129.874 64.3828,130.874 68.5,132.5C 68.8016,135.059 68.4682,137.393 67.5,139.5C 67.6602,137.801 67.4935,136.134 67,134.5C 66.3292,133.748 65.4959,133.414 64.5,133.5C 63.0697,132.463 61.403,131.796 59.5,131.5C 59.1667,131.5 58.8333,131.5 58.5,131.5C 57.5,130.833 56.5,130.167 55.5,129.5 Z"/></g>
<g><path style="opacity:1" fill="#70b0d1" d="M 59.5,131.5 C 61.403,131.796 63.0697,132.463 64.5,133.5C 63.5,133.5 62.5,133.5 61.5,133.5C 61.1667,133.5 60.8333,133.5 60.5,133.5C 60.1667,132.833 59.8333,132.167 59.5,131.5 Z"/></g>
<g><path style="opacity:1" fill="#83bad7" d="M 175.5,130.5 C 175.5,131.167 175.5,131.833 175.5,132.5C 174.833,132.833 174.167,133.167 173.5,133.5C 173.427,131.973 174.094,130.973 175.5,130.5 Z"/></g>
<g><path style="opacity:1" fill="#e0edf4" d="M 200.5,121.5 C 197.476,125.848 194.143,129.848 190.5,133.5C 190.5,132.833 190.5,132.167 190.5,131.5C 190.328,130.508 190.662,129.842 191.5,129.5C 192.5,129.167 193.167,128.5 193.5,127.5C 195.833,125.5 198.167,123.5 200.5,121.5 Z"/></g>
<g><path style="opacity:1" fill="#91c2db" d="M 190.5,131.5 C 190.5,132.167 190.5,132.833 190.5,133.5C 189.5,134.167 188.5,134.833 187.5,135.5C 187.738,133.596 188.738,132.262 190.5,131.5 Z"/></g>
<g><path style="opacity:1" fill="#b2d4e6" d="M 61.5,133.5 C 62.5,133.5 63.5,133.5 64.5,133.5C 64.8333,134.167 65.1667,134.833 65.5,135.5C 63.847,135.34 62.5137,134.674 61.5,133.5 Z"/></g>
<g><path style="opacity:1" fill="#4a9ac4" d="M 175.5,132.5 C 174.89,134.434 173.89,136.101 172.5,137.5C 172.5,136.833 172.5,136.167 172.5,135.5C 172.328,134.508 172.662,133.842 173.5,133.5C 174.167,133.167 174.833,132.833 175.5,132.5 Z"/></g>
<g><path style="opacity:1" fill="#529fc7" d="M 158.5,131.5 C 158.833,131.5 159.167,131.5 159.5,131.5C 158.559,133.05 157.893,134.716 157.5,136.5C 154.167,136.5 150.833,136.5 147.5,136.5C 149.831,135.683 152.331,135.016 155,134.5C 156.174,133.456 157.341,132.456 158.5,131.5 Z"/></g>
<g><path style="opacity:1" fill="#b8d8e8" d="M 162.5,129.5 C 162.5,130.167 162.5,130.833 162.5,131.5C 160.605,132.973 158.939,134.64 157.5,136.5C 157.893,134.716 158.559,133.05 159.5,131.5C 160.5,130.833 161.5,130.167 162.5,129.5 Z"/></g>
<g><path style="opacity:1" fill="#3c92c0" d="M 192.5,126.5 C 191.89,127.391 191.557,128.391 191.5,129.5C 190.662,129.842 190.328,130.508 190.5,131.5C 188.738,132.262 187.738,133.596 187.5,135.5C 185.926,137.102 185.259,139.102 185.5,141.5C 184.326,142.514 183.66,143.847 183.5,145.5C 183.167,145.5 182.833,145.5 182.5,145.5C 183.316,137.724 186.649,131.391 192.5,126.5 Z"/></g>
<g><path style="opacity:1" fill="#82bad7" d="M 201.5,131.5 C 201.5,131.833 201.5,132.167 201.5,132.5C 201.5,132.833 201.5,133.167 201.5,133.5C 200.549,134.919 200.216,136.585 200.5,138.5C 200.167,138.5 199.833,138.5 199.5,138.5C 199.5,136.5 199.5,134.5 199.5,132.5C 200.167,132.167 200.833,131.833 201.5,131.5 Z"/></g>
<g><path style="opacity:1" fill="#bcd9e9" d="M 71.5,128.5 C 78.2344,131.185 80.2344,135.851 77.5,142.5C 77.8064,139.615 77.4731,136.948 76.5,134.5C 75.8333,133.167 74.8333,132.167 73.5,131.5C 72.8333,130.5 72.1667,129.5 71.5,128.5 Z"/></g>
<g><path style="opacity:1" fill="#2e8bbb" d="M 130.5,149.5 C 130.5,148.833 130.5,148.167 130.5,147.5C 131.89,146.101 132.89,144.434 133.5,142.5C 133.5,142.167 133.5,141.833 133.5,141.5C 134.434,140.432 134.768,139.099 134.5,137.5C 126.316,137.174 118.316,137.508 110.5,138.5C 109.5,139.833 108.5,141.167 107.5,142.5C 107.167,142.5 106.833,142.5 106.5,142.5C 106.5,141.833 106.5,141.167 106.5,140.5C 107.812,139.855 108.812,138.855 109.5,137.5C 117.822,136.408 126.155,135.908 134.5,136C 136.066,141.462 134.732,145.962 130.5,149.5 Z"/></g>
<g><path style="opacity:1" fill="#a4cde2" d="M 147.5,136.5 C 150.833,136.5 154.167,136.5 157.5,136.5C 154.5,137.167 151.5,137.833 148.5,138.5C 147.921,141.331 146.588,143.664 144.5,145.5C 144.5,144.833 144.5,144.167 144.5,143.5C 145.471,141.517 146.471,139.517 147.5,137.5C 147.5,137.167 147.5,136.833 147.5,136.5 Z"/></g>
<g><path style="opacity:1" fill="#2d8abb" d="M 221.5,131.5 C 221.5,131.833 221.5,132.167 221.5,132.5C 220.167,133.5 218.833,134.5 217.5,135.5C 215.973,135.427 214.973,136.094 214.5,137.5C 214.167,137.5 213.833,137.5 213.5,137.5C 211.973,137.427 210.973,138.094 210.5,139.5C 209.5,139.5 208.5,139.5 207.5,139.5C 205.585,139.784 203.919,139.451 202.5,138.5C 209.579,137.921 215.912,135.588 221.5,131.5 Z"/></g>
<g><path style="opacity:1" fill="#80b9d6" d="M 217.5,135.5 C 217.5,135.833 217.5,136.167 217.5,136.5C 216.833,136.833 216.167,137.167 215.5,137.5C 215.167,137.5 214.833,137.5 214.5,137.5C 214.973,136.094 215.973,135.427 217.5,135.5 Z"/></g>
<g><path style="opacity:1" fill="#86bcd8" d="M 76.5,134.5 C 77.4731,136.948 77.8064,139.615 77.5,142.5C 77.573,144.027 76.9063,145.027 75.5,145.5C 76.3439,141.901 76.6773,138.234 76.5,134.5 Z"/></g>
<g><path style="opacity:1" fill="#7ab5d4" d="M 110.5,138.5 C 118.316,137.508 126.316,137.174 134.5,137.5C 134.768,139.099 134.434,140.432 133.5,141.5C 133.5,140.5 133.5,139.5 133.5,138.5C 125.833,138.5 118.167,138.5 110.5,138.5 Z"/></g>
<g><path style="opacity:1" fill="#e5f0f6" d="M 162.5,131.5 C 160.249,138.061 155.582,140.394 148.5,138.5C 151.5,137.833 154.5,137.167 157.5,136.5C 158.939,134.64 160.605,132.973 162.5,131.5 Z"/></g>
<g><path style="opacity:1" fill="#86bcd8" d="M 172.5,135.5 C 172.5,136.167 172.5,136.833 172.5,137.5C 171.143,138.59 170.143,139.924 169.5,141.5C 169.366,139.708 169.699,138.042 170.5,136.5C 171.167,136.167 171.833,135.833 172.5,135.5 Z"/></g>
<g><path style="opacity:1" fill="#dfedf5" d="M 238.5,138.5 C 239.919,137.549 241.585,137.216 243.5,137.5C 243.784,139.415 243.451,141.081 242.5,142.5C 242.5,141.167 242.5,139.833 242.5,138.5C 241.167,138.5 239.833,138.5 238.5,138.5 Z"/></g>
<g><path style="opacity:1" fill="#a3cbe1" d="M 92.5,133.5 C 92.5,133.833 92.5,134.167 92.5,134.5C 92.33,135.822 92.6634,136.989 93.5,138C 95.4727,138.495 97.4727,138.662 99.5,138.5C 99.7271,140.933 98.7271,142.599 96.5,143.5C 96.4142,142.504 96.7476,141.671 97.5,141C 95.7806,139.943 93.9472,139.11 92,138.5C 91.2204,136.613 91.3871,134.946 92.5,133.5 Z"/></g>
<g><path style="opacity:1" fill="#b1d4e6" d="M 110.5,138.5 C 118.167,138.5 125.833,138.5 133.5,138.5C 133.5,139.5 133.5,140.5 133.5,141.5C 133.5,141.833 133.5,142.167 133.5,142.5C 132.833,142.833 132.167,143.167 131.5,143.5C 131.539,142.417 131.873,141.417 132.5,140.5C 125.524,139.336 118.524,139.169 111.5,140C 110.295,141.376 108.962,142.542 107.5,143.5C 107.5,143.167 107.5,142.833 107.5,142.5C 108.5,141.167 109.5,139.833 110.5,138.5 Z"/></g>
<g><path style="opacity:1" fill="#74b2d2" d="M 213.5,137.5 C 213.167,138.167 212.833,138.833 212.5,139.5C 212.167,139.5 211.833,139.5 211.5,139.5C 211.167,139.5 210.833,139.5 210.5,139.5C 210.973,138.094 211.973,137.427 213.5,137.5 Z"/></g>
<g><path style="opacity:1" fill="#b5d6e7" d="M 213.5,137.5 C 213.833,137.5 214.167,137.5 214.5,137.5C 214.833,137.5 215.167,137.5 215.5,137.5C 215.027,138.906 214.027,139.573 212.5,139.5C 212.833,138.833 213.167,138.167 213.5,137.5 Z"/></g>
<g><path style="opacity:1" fill="#dfedf4" d="M 96.5,128.5 C 95.1667,130.167 93.8333,131.833 92.5,133.5C 91.3871,134.946 91.2204,136.613 92,138.5C 93.9472,139.11 95.7806,139.943 97.5,141C 96.7476,141.671 96.4142,142.504 96.5,143.5C 96.1667,143.5 95.8333,143.5 95.5,143.5C 95.5858,142.504 95.2524,141.671 94.5,141C 91.3209,140.82 89.9876,139.154 90.5,136C 90.8324,132.167 92.8324,129.667 96.5,128.5 Z"/></g>
<g><path style="opacity:1" fill="#e0eef5" d="M 131.5,143.5 C 130.662,143.842 130.328,144.508 130.5,145.5C 129.833,145.833 129.167,146.167 128.5,146.5C 128.383,144.516 129.05,142.85 130.5,141.5C 124.528,140.336 118.528,140.17 112.5,141C 107.94,145.069 103.274,148.902 98.5,152.5C 101.167,149.167 104.167,146.167 107.5,143.5C 108.962,142.542 110.295,141.376 111.5,140C 118.524,139.169 125.524,139.336 132.5,140.5C 131.873,141.417 131.539,142.417 131.5,143.5 Z"/></g>
<g><path style="opacity:1" fill="#59a3c9" d="M 201.5,133.5 C 201.216,135.415 201.549,137.081 202.5,138.5C 203.919,139.451 205.585,139.784 207.5,139.5C 206.081,140.451 204.415,140.784 202.5,140.5C 201.5,140.167 200.833,139.5 200.5,138.5C 200.216,136.585 200.549,134.919 201.5,133.5 Z"/></g>
<g><path style="opacity:1" fill="#e8f2f7" d="M 225.5,132.5 C 220.481,137.514 214.481,140.847 207.5,142.5C 207.5,142.167 207.5,141.833 207.5,141.5C 209.153,141.34 210.486,140.674 211.5,139.5C 211.833,139.5 212.167,139.5 212.5,139.5C 214.027,139.573 215.027,138.906 215.5,137.5C 216.167,137.167 216.833,136.833 217.5,136.5C 219.921,134.762 222.588,133.429 225.5,132.5 Z"/></g>
<g><path style="opacity:1" fill="#9fc9e0" d="M 187.5,135.5 C 187.741,137.898 187.074,139.898 185.5,141.5C 185.259,139.102 185.926,137.102 187.5,135.5 Z"/></g>
<g><path style="opacity:1" fill="#93c3dc" d="M 207.5,139.5 C 208.5,139.5 209.5,139.5 210.5,139.5C 210.833,139.5 211.167,139.5 211.5,139.5C 210.486,140.674 209.153,141.34 207.5,141.5C 205.585,141.784 203.919,141.451 202.5,140.5C 204.415,140.784 206.081,140.451 207.5,139.5 Z"/></g>
<g><path style="opacity:1" fill="#bad9e9" d="M 238.5,138.5 C 239.833,138.5 241.167,138.5 242.5,138.5C 242.5,139.833 242.5,141.167 242.5,142.5C 242.5,143.167 242.167,143.5 241.5,143.5C 241.5,142.167 241.5,140.833 241.5,139.5C 240.041,139.433 238.708,139.766 237.5,140.5C 237.328,139.508 237.662,138.842 238.5,138.5 Z"/></g>
<g><path style="opacity:1" fill="#318cbc" d="M 147.5,137.5 C 146.471,139.517 145.471,141.517 144.5,143.5C 143.833,143.833 143.167,144.167 142.5,144.5C 143.028,141.312 144.695,138.979 147.5,137.5 Z"/></g>
<g><path style="opacity:1" fill="#d9eaf3" d="M 170.5,136.5 C 169.699,138.042 169.366,139.708 169.5,141.5C 168.5,142.833 167.5,144.167 166.5,145.5C 166.136,141.591 167.47,138.591 170.5,136.5 Z"/></g>
<g><path style="opacity:1" fill="#2c89ba" d="M 172.5,137.5 C 172.38,140.578 171.38,143.245 169.5,145.5C 169.5,144.167 169.5,142.833 169.5,141.5C 170.143,139.924 171.143,138.59 172.5,137.5 Z"/></g>
<g><path style="opacity:1" fill="#cde3ef" d="M 199.5,138.5 C 199.833,138.5 200.167,138.5 200.5,138.5C 200.833,139.5 201.5,140.167 202.5,140.5C 203.919,141.451 205.585,141.784 207.5,141.5C 207.5,141.833 207.5,142.167 207.5,142.5C 205.473,142.662 203.473,142.495 201.5,142C 200.177,141.184 199.511,140.017 199.5,138.5 Z"/></g>
<g><path style="opacity:1" fill="#76b5d4" d="M 241.5,143.5 C 241.167,143.5 240.833,143.5 240.5,143.5C 240.649,142.448 240.483,141.448 240,140.5C 239.329,141.252 238.496,141.586 237.5,141.5C 237.5,141.167 237.5,140.833 237.5,140.5C 238.708,139.766 240.041,139.433 241.5,139.5C 241.5,140.833 241.5,142.167 241.5,143.5 Z"/></g>
<g><path style="opacity:1" fill="#62a7cc" d="M 64.5,133.5 C 65.4959,133.414 66.3292,133.748 67,134.5C 67.4935,136.134 67.6602,137.801 67.5,139.5C 66.7326,140.172 66.0659,141.005 65.5,142C 61.7847,143.295 58.1181,144.462 54.5,145.5C 55.5,144.833 56.5,144.167 57.5,143.5C 60.5525,142.223 63.3859,140.556 66,138.5C 66.7401,137.251 66.5735,136.251 65.5,135.5C 65.1667,134.833 64.8333,134.167 64.5,133.5 Z"/></g>
<g><path style="opacity:1" fill="#56a1c9" d="M 92.5,134.5 C 92.8333,134.5 93.1667,134.5 93.5,134.5C 93.4142,135.496 93.7476,136.329 94.5,137C 96.8098,137.497 99.1432,137.663 101.5,137.5C 99.9804,143.358 96.3137,147.358 90.5,149.5C 90.8333,148.833 91.1667,148.167 91.5,147.5C 93.7488,146.92 95.4154,145.587 96.5,143.5C 98.7271,142.599 99.7271,140.933 99.5,138.5C 97.4727,138.662 95.4727,138.495 93.5,138C 92.6634,136.989 92.33,135.822 92.5,134.5 Z"/></g>
<g><path style="opacity:1" fill="#d8e9f2" d="M 21.5,143.5 C 18.7718,143.171 16.4385,143.837 14.5,145.5C 12.2459,146.415 10.2459,147.748 8.5,149.5C 10.7714,142.863 15.1047,140.863 21.5,143.5 Z"/></g>
<g><path style="opacity:1" fill="#88bfda" d="M 21.5,143.5 C 21.5,144.833 21.5,146.167 21.5,147.5C 20.8423,146.602 20.1757,145.602 19.5,144.5C 17.9291,145.309 16.2624,145.643 14.5,145.5C 16.4385,143.837 18.7718,143.171 21.5,143.5 Z"/></g>
<g><path style="opacity:1" fill="#c5dfec" d="M 237.5,140.5 C 237.5,140.833 237.5,141.167 237.5,141.5C 236.5,141.833 235.833,142.5 235.5,143.5C 233.223,144.449 231.223,145.782 229.5,147.5C 227.973,147.427 226.973,148.094 226.5,149.5C 224.973,149.427 223.973,150.094 223.5,151.5C 221.938,151.733 220.605,152.4 219.5,153.5C 218.391,153.557 217.391,153.89 216.5,154.5C 222.898,149.133 229.898,144.466 237.5,140.5 Z"/></g>
<g><path style="opacity:1" fill="#e3eff6" d="M 50.5,144.5 C 50.5,144.833 50.5,145.167 50.5,145.5C 46.5341,146.162 42.5341,146.495 38.5,146.5C 36.8333,146.5 35.1667,146.5 33.5,146.5C 34.2625,145.732 35.2625,145.232 36.5,145C 41.1548,144.501 45.8215,144.334 50.5,144.5 Z"/></g>
<g><path style="opacity:1" fill="#99c7de" d="M 53.5,143.5 C 54.8333,143.5 56.1667,143.5 57.5,143.5C 56.5,144.167 55.5,144.833 54.5,145.5C 53.1667,145.5 51.8333,145.5 50.5,145.5C 50.5,145.167 50.5,144.833 50.5,144.5C 51.791,144.737 52.791,144.404 53.5,143.5 Z"/></g>
<g><path style="opacity:1" fill="#63a8cd" d="M 235.5,143.5 C 234.292,146.044 232.292,147.378 229.5,147.5C 231.223,145.782 233.223,144.449 235.5,143.5 Z"/></g>
<g><path style="opacity:1" fill="#61a7cc" d="M 144.5,143.5 C 144.5,144.167 144.5,144.833 144.5,145.5C 142.787,146.635 142.12,148.302 142.5,150.5C 141.596,149.791 141.263,148.791 141.5,147.5C 141.557,146.391 141.89,145.391 142.5,144.5C 143.167,144.167 143.833,143.833 144.5,143.5 Z"/></g>
<g><path style="opacity:1" fill="#cee3ef" d="M 21.5,143.5 C 23.0481,143.821 23.7148,144.821 23.5,146.5C 26.8333,146.5 30.1667,146.5 33.5,146.5C 35.1667,146.5 36.8333,146.5 38.5,146.5C 33.0247,147.489 27.358,147.822 21.5,147.5C 21.5,146.167 21.5,144.833 21.5,143.5 Z"/></g>
<g><path style="opacity:1" fill="#88bdd9" d="M 50.5,145.5 C 49.5,146.167 48.5,146.833 47.5,147.5C 46.8333,147.5 46.1667,147.5 45.5,147.5C 37.3469,148.674 29.3469,148.674 21.5,147.5C 27.358,147.822 33.0247,147.489 38.5,146.5C 42.5341,146.495 46.5341,146.162 50.5,145.5 Z"/></g>
<g><path style="opacity:1" fill="#4598c3" d="M 50.5,145.5 C 51.8333,145.5 53.1667,145.5 54.5,145.5C 52.4855,146.924 50.1522,147.59 47.5,147.5C 48.5,146.833 49.5,146.167 50.5,145.5 Z"/></g>
<g><path style="opacity:1" fill="#b1d4e6" d="M 95.5,143.5 C 95.8333,143.5 96.1667,143.5 96.5,143.5C 95.4154,145.587 93.7488,146.92 91.5,147.5C 91.5,147.167 91.5,146.833 91.5,146.5C 92.8333,145.5 94.1667,144.5 95.5,143.5 Z"/></g>
<g><path style="opacity:1" fill="#77b3d3" d="M 106.5,142.5 C 106.833,142.5 107.167,142.5 107.5,142.5C 107.5,142.833 107.5,143.167 107.5,143.5C 104.167,146.167 101.167,149.167 98.5,152.5C 98.1667,152.5 97.8333,152.5 97.5,152.5C 97.5,152.167 97.5,151.833 97.5,151.5C 100.167,148.167 103.167,145.167 106.5,142.5 Z"/></g>
<g><path style="opacity:1" fill="#6daed0" d="M 133.5,142.5 C 132.89,144.434 131.89,146.101 130.5,147.5C 130.5,146.833 130.5,146.167 130.5,145.5C 130.328,144.508 130.662,143.842 131.5,143.5C 132.167,143.167 132.833,142.833 133.5,142.5 Z"/></g>
<g><path style="opacity:1" fill="#dbebf3" d="M 91.5,146.5 C 91.5,146.833 91.5,147.167 91.5,147.5C 89.9731,147.427 88.9731,148.094 88.5,149.5C 87.391,149.557 86.391,149.89 85.5,150.5C 86.6627,148.018 88.6627,146.684 91.5,146.5 Z"/></g>
<g><path style="opacity:1" fill="#b1d4e6" d="M 130.5,145.5 C 130.5,146.167 130.5,146.833 130.5,147.5C 129.833,147.833 129.167,148.167 128.5,148.5C 128.5,147.833 128.5,147.167 128.5,146.5C 129.167,146.167 129.833,145.833 130.5,145.5 Z"/></g>
<g><path style="opacity:1" fill="#9dc8df" d="M 144.5,145.5 C 144.461,146.583 144.127,147.583 143.5,148.5C 144,148.833 144.5,149.167 145,149.5C 147.635,146.933 150.802,145.6 154.5,145.5C 154.834,148.188 154.168,150.521 152.5,152.5C 152.167,152.5 151.833,152.5 151.5,152.5C 151.5,152.167 151.5,151.833 151.5,151.5C 153.319,150.064 153.652,148.397 152.5,146.5C 150.032,147.803 147.699,149.303 145.5,151C 144.251,151.74 143.251,151.573 142.5,150.5C 142.12,148.302 142.787,146.635 144.5,145.5 Z"/></g>
<g><path style="opacity:1" fill="#75b2d2" d="M 14.5,145.5 C 14.5,145.833 14.5,146.167 14.5,146.5C 12.5,147.833 10.8333,149.5 9.5,151.5C 8.83333,151.833 8.16667,152.167 7.5,152.5C 7.55688,151.391 7.89022,150.391 8.5,149.5C 10.2459,147.748 12.2459,146.415 14.5,145.5 Z"/></g>
<g><path style="opacity:1" fill="#4a9bc5" d="M 21.5,147.5 C 29.3469,148.674 37.3469,148.674 45.5,147.5C 44.7375,148.268 43.7375,148.768 42.5,149C 34.5069,149.5 26.5069,149.666 18.5,149.5C 18.5,148.5 18.5,147.5 18.5,146.5C 17.1667,146.5 15.8333,146.5 14.5,146.5C 14.5,146.167 14.5,145.833 14.5,145.5C 16.2624,145.643 17.9291,145.309 19.5,144.5C 20.1757,145.602 20.8423,146.602 21.5,147.5 Z"/></g>
<g><path style="opacity:1" fill="#b3d4e6" d="M 75.5,145.5 C 75.3775,148.292 74.0442,150.292 71.5,151.5C 71.5,151.167 71.5,150.833 71.5,150.5C 72.8637,148.809 74.197,147.142 75.5,145.5 Z"/></g>
<g><path style="opacity:1" fill="#98c6de" d="M 91.5,147.5 C 91.1667,148.167 90.8333,148.833 90.5,149.5C 89.8333,149.5 89.1667,149.5 88.5,149.5C 88.9731,148.094 89.9731,147.427 91.5,147.5 Z"/></g>
<g><path style="opacity:1" fill="#7bb6d4" d="M 229.5,147.5 C 229.027,148.906 228.027,149.573 226.5,149.5C 226.973,148.094 227.973,147.427 229.5,147.5 Z"/></g>
<g><path style="opacity:1" fill="#0d78b1" d="M 96.5,131.5 C 96.4606,132.583 96.1272,133.583 95.5,134.5C 98.1566,135.259 100.823,135.926 103.5,136.5C 104.057,138.332 105.057,139.665 106.5,140.5C 106.5,141.167 106.5,141.833 106.5,142.5C 103.167,145.167 100.167,148.167 97.5,151.5C 92.8483,154.486 88.8483,158.153 85.5,162.5C 83.1175,164.046 80.4509,164.713 77.5,164.5C 77.5,163.5 77.5,162.5 77.5,161.5C 79.8333,158.5 82.5,155.833 85.5,153.5C 87.7488,152.92 89.4154,151.587 90.5,149.5C 96.3137,147.358 99.9804,143.358 101.5,137.5C 99.1432,137.663 96.8098,137.497 94.5,137C 93.7476,136.329 93.4142,135.496 93.5,134.5C 94.1667,133.167 95.1667,132.167 96.5,131.5 Z"/></g>
<g><path style="opacity:1" fill="#3490bf" d="M 151.5,151.5 C 149.589,152.075 147.922,153.075 146.5,154.5C 145.159,152.88 143.326,151.88 141,151.5C 140.235,149.934 140.402,148.601 141.5,147.5C 141.263,148.791 141.596,149.791 142.5,150.5C 143.251,151.573 144.251,151.74 145.5,151C 147.699,149.303 150.032,147.803 152.5,146.5C 153.652,148.397 153.319,150.064 151.5,151.5 Z"/></g>
<g><path style="opacity:1" fill="#dfedf5" d="M 154.5,145.5 C 156.377,146.659 156.877,148.326 156,150.5C 155.184,151.823 154.017,152.489 152.5,152.5C 154.168,150.521 154.834,148.188 154.5,145.5 Z"/></g>
<g><path style="opacity:1" fill="#c9e1ee" d="M 185.5,141.5 C 184.746,146.463 184.413,151.463 184.5,156.5C 183.518,153.038 183.185,149.371 183.5,145.5C 183.66,143.847 184.326,142.514 185.5,141.5 Z"/></g>
<g><path style="opacity:1" fill="#79b5d3" d="M 226.5,149.5 C 226.027,150.906 225.027,151.573 223.5,151.5C 223.973,150.094 224.973,149.427 226.5,149.5 Z"/></g>
<g><path style="opacity:1" fill="#d2e6f0" d="M 240.5,143.5 C 240.833,143.5 241.167,143.5 241.5,143.5C 239.895,148.104 236.895,151.438 232.5,153.5C 234.833,150.833 237.167,148.167 239.5,145.5C 239.833,144.833 240.167,144.167 240.5,143.5 Z"/></g>
<g><path style="opacity:1" fill="#4195c1" d="M 73.5,131.5 C 74.8333,132.167 75.8333,133.167 76.5,134.5C 76.6773,138.234 76.3439,141.901 75.5,145.5C 74.197,147.142 72.8637,148.809 71.5,150.5C 68.8021,150.845 66.8021,152.178 65.5,154.5C 64.8333,154.5 64.1667,154.5 63.5,154.5C 67.8031,151.029 71.6365,147.029 75,142.5C 75.8844,138.567 75.3844,134.901 73.5,131.5 Z"/></g>
<g><path style="opacity:1" fill="#8bbeda" d="M 71.5,150.5 C 71.5,150.833 71.5,151.167 71.5,151.5C 69.7697,152.026 68.4363,153.026 67.5,154.5C 66.8333,154.5 66.1667,154.5 65.5,154.5C 66.8021,152.178 68.8021,150.845 71.5,150.5 Z"/></g>
<g><path style="opacity:1" fill="#2c89bb" d="M 88.5,149.5 C 89.1667,149.5 89.8333,149.5 90.5,149.5C 89.4154,151.587 87.7488,152.92 85.5,153.5C 86.5,152.167 87.5,150.833 88.5,149.5 Z"/></g>
<g><path style="opacity:1" fill="#7db7d4" d="M 151.5,151.5 C 151.5,151.833 151.5,152.167 151.5,152.5C 149.809,153.864 148.142,155.197 146.5,156.5C 146.167,156.5 145.833,156.5 145.5,156.5C 145.5,156.167 145.5,155.833 145.5,155.5C 145.5,154.833 145.833,154.5 146.5,154.5C 147.922,153.075 149.589,152.075 151.5,151.5 Z"/></g>
<g><path style="opacity:1" fill="#81b9d6" d="M 182.5,145.5 C 182.833,145.5 183.167,145.5 183.5,145.5C 183.185,149.371 183.518,153.038 184.5,156.5C 184.5,157.167 184.5,157.833 184.5,158.5C 183.833,158.167 183.167,157.833 182.5,157.5C 181.274,153.367 181.274,149.367 182.5,145.5 Z"/></g>
<g><path style="opacity:1" fill="#cce3ef" d="M 166.5,145.5 C 166.102,148.483 165.768,151.483 165.5,154.5C 165.701,157.988 166.368,161.321 167.5,164.5C 166.034,163.653 165.2,162.32 165,160.5C 164.833,158.5 164.667,156.5 164.5,154.5C 164.343,151.186 165.009,148.186 166.5,145.5 Z"/></g>
<g><path style="opacity:1" fill="#197eb4" d="M 169.5,145.5 C 169.287,152.211 169.62,158.877 170.5,165.5C 170.167,165.5 169.833,165.5 169.5,165.5C 168.199,161.624 167.533,157.624 167.5,153.5C 167.287,150.473 167.953,147.807 169.5,145.5 Z"/></g>
<g><path style="opacity:1" fill="#b7d7e7" d="M 85.5,150.5 C 82.5,154.167 79.1667,157.5 75.5,160.5C 75.5,160.167 75.5,159.833 75.5,159.5C 78.2311,155.766 81.5644,152.766 85.5,150.5 Z"/></g>
<g><path style="opacity:1" fill="#deedf4" d="M 128.5,146.5 C 128.5,147.167 128.5,147.833 128.5,148.5C 124.16,158.246 127.16,162.579 137.5,161.5C 128.43,165.192 124.264,162.192 125,152.5C 126.082,150.382 127.249,148.382 128.5,146.5 Z"/></g>
<g><path style="opacity:1" fill="#76b2d2" d="M 130.5,147.5 C 130.5,148.167 130.5,148.833 130.5,149.5C 129.883,149.611 129.383,149.944 129,150.5C 126.557,159.506 129.724,162.506 138.5,159.5C 138.167,160.167 137.833,160.833 137.5,161.5C 127.16,162.579 124.16,158.246 128.5,148.5C 129.167,148.167 129.833,147.833 130.5,147.5 Z"/></g>
<g><path style="opacity:1" fill="#6baccf" d="M 169.5,141.5 C 169.5,142.833 169.5,144.167 169.5,145.5C 167.953,147.807 167.287,150.473 167.5,153.5C 167.533,157.624 168.199,161.624 169.5,165.5C 168.833,165.167 168.167,164.833 167.5,164.5C 166.368,161.321 165.701,157.988 165.5,154.5C 165.768,151.483 166.102,148.483 166.5,145.5C 167.5,144.167 168.5,142.833 169.5,141.5 Z"/></g>
<g><path style="opacity:1" fill="#539ec7" d="M 223.5,151.5 C 222.089,153.914 220.089,155.581 217.5,156.5C 218.167,155.5 218.833,154.5 219.5,153.5C 220.605,152.4 221.938,151.733 223.5,151.5 Z"/></g>
<g><path style="opacity:1" fill="#dcebf3" d="M 8.5,149.5 C 7.89022,150.391 7.55688,151.391 7.5,152.5C 6.54885,153.919 6.21552,155.585 6.5,157.5C 5.35089,157.209 4.68423,156.376 4.5,155C 4.92657,152.42 6.2599,150.587 8.5,149.5 Z"/></g>
<g><path style="opacity:1" fill="#bedbea" d="M 63.5,154.5 C 64.1667,154.5 64.8333,154.5 65.5,154.5C 66.1667,154.5 66.8333,154.5 67.5,154.5C 65.8984,156.074 63.8984,156.741 61.5,156.5C 62.1667,155.833 62.8333,155.167 63.5,154.5 Z"/></g>
<g><path style="opacity:1" fill="#529ec7" d="M 63.5,154.5 C 62.8333,155.167 62.1667,155.833 61.5,156.5C 57.4181,157.249 53.4181,158.249 49.5,159.5C 48.1667,159.5 46.8333,159.5 45.5,159.5C 45.5,159.167 45.5,158.833 45.5,158.5C 51.5076,157.16 57.5076,155.827 63.5,154.5 Z"/></g>
<g><path style="opacity:1" fill="#8dbfda" d="M 219.5,153.5 C 218.833,154.5 218.167,155.5 217.5,156.5C 216.167,156.833 214.833,157.167 213.5,157.5C 213.782,156.222 214.449,155.222 215.5,154.5C 215.833,154.5 216.167,154.5 216.5,154.5C 217.391,153.89 218.391,153.557 219.5,153.5 Z"/></g>
<g><path style="opacity:1" fill="#69abcf" d="M 239.5,145.5 C 237.167,148.167 234.833,150.833 232.5,153.5C 230.596,153.738 229.262,154.738 228.5,156.5C 225.86,157.82 223.193,159.153 220.5,160.5C 226.573,155.281 232.907,150.281 239.5,145.5 Z"/></g>
<g><path style="opacity:1" fill="#60a7cb" d="M 88.5,149.5 C 87.5,150.833 86.5,152.167 85.5,153.5C 82.5,155.833 79.8333,158.5 77.5,161.5C 76.5655,162.568 76.2322,163.901 76.5,165.5C 78.1667,165.5 79.8333,165.5 81.5,165.5C 80.0813,166.451 78.4147,166.784 76.5,166.5C 75.5386,164.735 75.2053,162.735 75.5,160.5C 79.1667,157.5 82.5,154.167 85.5,150.5C 86.391,149.89 87.391,149.557 88.5,149.5 Z"/></g>
<g><path style="opacity:1" fill="#bedbea" d="M 145.5,156.5 C 145.833,156.5 146.167,156.5 146.5,156.5C 145.738,158.262 144.404,159.262 142.5,159.5C 142.833,158.833 143.167,158.167 143.5,157.5C 144.167,157.167 144.833,156.833 145.5,156.5 Z"/></g>
<g><path style="opacity:1" fill="#b7d7e8" d="M 228.5,156.5 C 225.525,159.323 222.192,161.656 218.5,163.5C 219.167,162.5 219.833,161.5 220.5,160.5C 223.193,159.153 225.86,157.82 228.5,156.5 Z"/></g>
<g><path style="opacity:1" fill="#a4cce2" d="M 7.5,152.5 C 6.92376,156.112 7.92376,159.112 10.5,161.5C 8.16667,161.167 6.83333,159.833 6.5,157.5C 6.21552,155.585 6.54885,153.919 7.5,152.5 Z"/></g>
<g><path style="opacity:1" fill="#84bbd8" d="M 143.5,157.5 C 143.167,158.167 142.833,158.833 142.5,159.5C 141.833,159.5 141.167,159.5 140.5,159.5C 140.973,158.094 141.973,157.427 143.5,157.5 Z"/></g>
<g><path style="opacity:1" fill="#e2eff6" d="M 215.5,154.5 C 214.449,155.222 213.782,156.222 213.5,157.5C 212.833,157.5 212.167,157.5 211.5,157.5C 209.973,157.427 208.973,158.094 208.5,159.5C 207.833,159.5 207.167,159.5 206.5,159.5C 204.973,159.427 203.973,160.094 203.5,161.5C 202.5,161.5 201.5,161.5 200.5,161.5C 205.257,158.768 210.257,156.435 215.5,154.5 Z"/></g>
<g><path style="opacity:1" fill="#9ec9e0" d="M 211.5,157.5 C 211.167,158.167 210.833,158.833 210.5,159.5C 209.833,159.5 209.167,159.5 208.5,159.5C 208.973,158.094 209.973,157.427 211.5,157.5 Z"/></g>
<g><path style="opacity:1" fill="#60a7cc" d="M 211.5,157.5 C 212.167,157.5 212.833,157.5 213.5,157.5C 213.027,158.906 212.027,159.573 210.5,159.5C 210.833,158.833 211.167,158.167 211.5,157.5 Z"/></g>
<g><path style="opacity:1" fill="#1e81b6" d="M 45.5,158.5 C 45.5,158.833 45.5,159.167 45.5,159.5C 43.7085,159.366 42.0418,159.699 40.5,160.5C 30.6522,160.827 20.9856,160.494 11.5,159.5C 22.8565,159.69 34.1898,159.356 45.5,158.5 Z"/></g>
<g><path style="opacity:1" fill="#88bdd9" d="M 45.5,159.5 C 46.8333,159.5 48.1667,159.5 49.5,159.5C 49.5,159.833 49.5,160.167 49.5,160.5C 47.3792,160.325 45.3792,160.659 43.5,161.5C 42.5,161.5 41.5,161.5 40.5,161.5C 40.5,161.167 40.5,160.833 40.5,160.5C 42.0418,159.699 43.7085,159.366 45.5,159.5 Z"/></g>
<g><path style="opacity:1" fill="#bfdbea" d="M 61.5,156.5 C 59.3877,158.771 56.721,160.104 53.5,160.5C 52.1667,160.5 50.8333,160.5 49.5,160.5C 49.5,160.167 49.5,159.833 49.5,159.5C 53.4181,158.249 57.4181,157.249 61.5,156.5 Z"/></g>
<g><path style="opacity:1" fill="#58a2c8" d="M 97.5,151.5 C 97.5,151.833 97.5,152.167 97.5,152.5C 93.7921,156.21 89.7921,159.543 85.5,162.5C 88.8483,158.153 92.8483,154.486 97.5,151.5 Z"/></g>
<g><path style="opacity:1" fill="#b6d7e7" d="M 97.5,152.5 C 97.8333,152.5 98.1667,152.5 98.5,152.5C 94.3913,157.948 89.3913,162.281 83.5,165.5C 84.1667,164.5 84.8333,163.5 85.5,162.5C 89.7921,159.543 93.7921,156.21 97.5,152.5 Z"/></g>
<g><path style="opacity:1" fill="#2887b9" d="M 130.5,149.5 C 130.216,152.777 130.549,155.943 131.5,159C 136.489,159.086 141.155,157.92 145.5,155.5C 145.5,155.833 145.5,156.167 145.5,156.5C 144.833,156.833 144.167,157.167 143.5,157.5C 141.973,157.427 140.973,158.094 140.5,159.5C 139.833,159.5 139.167,159.5 138.5,159.5C 129.724,162.506 126.557,159.506 129,150.5C 129.383,149.944 129.883,149.611 130.5,149.5 Z"/></g>
<g><path style="opacity:1" fill="#65a8cd" d="M 182.5,157.5 C 183.167,157.833 183.833,158.167 184.5,158.5C 185.338,158.842 185.672,159.508 185.5,160.5C 185.833,161.167 186.167,161.833 186.5,162.5C 184.469,161.461 183.136,159.795 182.5,157.5 Z"/></g>
<g><path style="opacity:1" fill="#1c7fb5" d="M 240.5,143.5 C 240.167,144.167 239.833,144.833 239.5,145.5C 232.907,150.281 226.573,155.281 220.5,160.5C 218.596,160.738 217.262,161.738 216.5,163.5C 214.938,163.733 213.605,164.4 212.5,165.5C 210.973,165.427 209.973,166.094 209.5,167.5C 208.833,167.5 208.167,167.5 207.5,167.5C 209.84,165.213 212.506,163.213 215.5,161.5C 212.911,160.795 210.244,160.795 207.5,161.5C 207.833,160.833 208.167,160.167 208.5,159.5C 209.167,159.5 209.833,159.5 210.5,159.5C 212.027,159.573 213.027,158.906 213.5,157.5C 214.833,157.167 216.167,156.833 217.5,156.5C 220.089,155.581 222.089,153.914 223.5,151.5C 225.027,151.573 226.027,150.906 226.5,149.5C 228.027,149.573 229.027,148.906 229.5,147.5C 232.292,147.378 234.292,146.044 235.5,143.5C 235.833,142.5 236.5,141.833 237.5,141.5C 238.496,141.586 239.329,141.252 240,140.5C 240.483,141.448 240.649,142.448 240.5,143.5 Z"/></g>
<g><path style="opacity:1" fill="#5ca4ca" d="M 9.5,151.5 C 7.67945,154.886 8.34612,157.553 11.5,159.5C 20.9856,160.494 30.6522,160.827 40.5,160.5C 40.5,160.833 40.5,161.167 40.5,161.5C 30.5043,162.739 20.5043,162.739 10.5,161.5C 7.92376,159.112 6.92376,156.112 7.5,152.5C 8.16667,152.167 8.83333,151.833 9.5,151.5 Z"/></g>
<g><path style="opacity:1" fill="#9bc7df" d="M 138.5,159.5 C 139.167,159.5 139.833,159.5 140.5,159.5C 140.027,160.906 139.027,161.573 137.5,161.5C 137.833,160.833 138.167,160.167 138.5,159.5 Z"/></g>
<g><path style="opacity:1" fill="#b2d4e6" d="M 206.5,159.5 C 206.167,160.167 205.833,160.833 205.5,161.5C 204.833,161.5 204.167,161.5 203.5,161.5C 203.973,160.094 204.973,159.427 206.5,159.5 Z"/></g>
<g><path style="opacity:1" fill="#7db7d5" d="M 206.5,159.5 C 207.167,159.5 207.833,159.5 208.5,159.5C 208.167,160.167 207.833,160.833 207.5,161.5C 206.833,161.5 206.167,161.5 205.5,161.5C 205.833,160.833 206.167,160.167 206.5,159.5 Z"/></g>
<g><path style="opacity:1" fill="#dfedf4" d="M 49.5,160.5 C 50.8333,160.5 52.1667,160.5 53.5,160.5C 50.4928,162.175 47.1595,162.841 43.5,162.5C 43.5,162.167 43.5,161.833 43.5,161.5C 45.3792,160.659 47.3792,160.325 49.5,160.5 Z"/></g>
<g><path style="opacity:1" fill="#9fcae0" d="M 185.5,160.5 C 187.027,160.427 188.027,161.094 188.5,162.5C 187.833,162.5 187.167,162.5 186.5,162.5C 186.167,161.833 185.833,161.167 185.5,160.5 Z"/></g>
<g><path style="opacity:1" fill="#66aace" d="M 220.5,160.5 C 219.833,161.5 219.167,162.5 218.5,163.5C 217.833,163.5 217.167,163.5 216.5,163.5C 217.262,161.738 218.596,160.738 220.5,160.5 Z"/></g>
<g><path style="opacity:1" fill="#bedbea" d="M 10.5,161.5 C 20.5043,162.739 30.5043,162.739 40.5,161.5C 41.5,161.5 42.5,161.5 43.5,161.5C 43.5,161.833 43.5,162.167 43.5,162.5C 37.3389,162.851 31.1722,163.184 25,163.5C 19.9104,163.656 15.0771,162.99 10.5,161.5 Z"/></g>
<g><path style="opacity:1" fill="#aad0e3" d="M 200.5,161.5 C 201.5,161.5 202.5,161.5 203.5,161.5C 202.737,162.268 201.737,162.768 200.5,163C 196.848,163.499 193.182,163.665 189.5,163.5C 188.833,163.5 188.5,163.167 188.5,162.5C 192.6,162.763 196.6,162.43 200.5,161.5 Z"/></g>
<g><path style="opacity:1" fill="#4e9bc5" d="M 203.5,161.5 C 204.167,161.5 204.833,161.5 205.5,161.5C 206.167,161.5 206.833,161.5 207.5,161.5C 205.077,163.855 202.077,164.855 198.5,164.5C 195.287,164.81 192.287,164.477 189.5,163.5C 193.182,163.665 196.848,163.499 200.5,163C 201.737,162.768 202.737,162.268 203.5,161.5 Z"/></g>
<g><path style="opacity:1" fill="#3c93c0" d="M 77.5,161.5 C 77.5,162.5 77.5,163.5 77.5,164.5C 80.4509,164.713 83.1175,164.046 85.5,162.5C 84.8333,163.5 84.1667,164.5 83.5,165.5C 82.8333,165.5 82.1667,165.5 81.5,165.5C 79.8333,165.5 78.1667,165.5 76.5,165.5C 76.2322,163.901 76.5655,162.568 77.5,161.5 Z"/></g>
<g><path style="opacity:1" fill="#3790be" d="M 186.5,162.5 C 187.167,162.5 187.833,162.5 188.5,162.5C 188.5,163.167 188.833,163.5 189.5,163.5C 192.287,164.477 195.287,164.81 198.5,164.5C 195.36,165.641 192.027,165.808 188.5,165C 187.619,164.292 186.953,163.458 186.5,162.5 Z"/></g>
<g><path style="opacity:1" fill="#b5d6e6" d="M 81.5,165.5 C 82.1667,165.5 82.8333,165.5 83.5,165.5C 83.5,166.833 82.8333,167.5 81.5,167.5C 79.5853,167.784 77.9187,167.451 76.5,166.5C 78.4147,166.784 80.0813,166.451 81.5,165.5 Z"/></g>
<g><path style="opacity:1" fill="#b0d3e6" d="M 167.5,164.5 C 168.167,164.833 168.833,165.167 169.5,165.5C 169.5,166.167 169.5,166.833 169.5,167.5C 168.094,167.027 167.427,166.027 167.5,164.5 Z"/></g>
<g><path style="opacity:1" fill="#66aace" d="M 169.5,165.5 C 169.833,165.5 170.167,165.5 170.5,165.5C 171.167,166.833 172.167,167.833 173.5,168.5C 174.167,169.5 174.833,170.5 175.5,171.5C 173.246,170.585 171.246,169.252 169.5,167.5C 169.5,166.833 169.5,166.167 169.5,165.5 Z"/></g>
<g><path style="opacity:1" fill="#66aacd" d="M 212.5,165.5 C 212.167,166.167 211.833,166.833 211.5,167.5C 210.833,167.5 210.167,167.5 209.5,167.5C 209.973,166.094 210.973,165.427 212.5,165.5 Z"/></g>
<g><path style="opacity:1" fill="#9bc7de" d="M 216.5,163.5 C 215.5,164.833 214.5,166.167 213.5,167.5C 212.833,167.5 212.167,167.5 211.5,167.5C 211.833,166.833 212.167,166.167 212.5,165.5C 213.605,164.4 214.938,163.733 216.5,163.5 Z"/></g>
<g><path style="opacity:1" fill="#d5e8f1" d="M 216.5,163.5 C 217.167,163.5 217.833,163.5 218.5,163.5C 217.415,165.587 215.749,166.92 213.5,167.5C 214.5,166.167 215.5,164.833 216.5,163.5 Z"/></g>
<g><path style="opacity:1" fill="#dbebf3" d="M 75.5,159.5 C 75.5,159.833 75.5,160.167 75.5,160.5C 75.2053,162.735 75.5386,164.735 76.5,166.5C 77.9187,167.451 79.5853,167.784 81.5,167.5C 75.2545,170.216 72.4211,168.216 73,161.5C 73.7083,160.619 74.5416,159.953 75.5,159.5 Z"/></g>
<g><path style="opacity:1" fill="#8bbfda" d="M 207.5,167.5 C 208.167,167.5 208.833,167.5 209.5,167.5C 209.167,168.167 208.833,168.833 208.5,169.5C 207.833,169.5 207.167,169.5 206.5,169.5C 206.833,168.833 207.167,168.167 207.5,167.5 Z"/></g>
<g><path style="opacity:1" fill="#dfedf4" d="M 209.5,167.5 C 210.167,167.5 210.833,167.5 211.5,167.5C 212.167,167.5 212.833,167.5 213.5,167.5C 212.365,169.213 210.698,169.88 208.5,169.5C 208.833,168.833 209.167,168.167 209.5,167.5 Z"/></g>
<g><path style="opacity:1" fill="#338dbd" d="M 207.5,167.5 C 207.167,168.167 206.833,168.833 206.5,169.5C 205.833,169.5 205.167,169.5 204.5,169.5C 202.883,170.038 201.216,170.371 199.5,170.5C 201.848,168.903 204.514,167.903 207.5,167.5 Z"/></g>
<g><path style="opacity:1" fill="#daeaf3" d="M 169.5,167.5 C 171.246,169.252 173.246,170.585 175.5,171.5C 175.5,171.833 175.5,172.167 175.5,172.5C 175.833,173.167 176.167,173.833 176.5,174.5C 172.161,174.156 169.828,171.823 169.5,167.5 Z"/></g>
<g><path style="opacity:1" fill="#2787b9" d="M 173.5,168.5 C 177.85,170.142 182.35,171.475 187,172.5C 190.143,171.893 193.31,171.559 196.5,171.5C 195.167,172.167 193.833,172.833 192.5,173.5C 192.167,173.5 191.833,173.5 191.5,173.5C 186.012,173.752 180.678,173.085 175.5,171.5C 174.833,170.5 174.167,169.5 173.5,168.5 Z"/></g>
<g><path style="opacity:1" fill="#6eafd0" d="M 204.5,169.5 C 201.079,172.196 197.079,173.53 192.5,173.5C 193.833,172.833 195.167,172.167 196.5,171.5C 197.791,171.737 198.791,171.404 199.5,170.5C 201.216,170.371 202.883,170.038 204.5,169.5 Z"/></g>
<g><path style="opacity:1" fill="#c1ddeb" d="M 204.5,169.5 C 205.167,169.5 205.833,169.5 206.5,169.5C 207.167,169.5 207.833,169.5 208.5,169.5C 208.389,170.117 208.056,170.617 207.5,171C 203.553,172.484 199.553,173.65 195.5,174.5C 194.167,174.5 192.833,174.5 191.5,174.5C 191.5,174.167 191.5,173.833 191.5,173.5C 191.833,173.5 192.167,173.5 192.5,173.5C 197.079,173.53 201.079,172.196 204.5,169.5 Z"/></g>
<g><path style="opacity:1" fill="#6badcf" d="M 175.5,172.5 C 175.5,172.167 175.5,171.833 175.5,171.5C 180.678,173.085 186.012,173.752 191.5,173.5C 191.5,173.833 191.5,174.167 191.5,174.5C 186.009,174.85 180.676,174.184 175.5,172.5 Z"/></g>
<g><path style="opacity:1" fill="#b4d6e7" d="M 175.5,172.5 C 180.676,174.184 186.009,174.85 191.5,174.5C 188.038,175.482 184.371,175.815 180.5,175.5C 179.292,174.766 177.959,174.433 176.5,174.5C 176.167,173.833 175.833,173.167 175.5,172.5 Z"/></g>
<g><path style="opacity:1" fill="#e2eff5" d="M 191.5,174.5 C 192.833,174.5 194.167,174.5 195.5,174.5C 192.814,175.991 189.814,176.657 186.5,176.5C 184.304,176.495 182.304,176.162 180.5,175.5C 184.371,175.815 188.038,175.482 191.5,174.5 Z"/></g>
</svg>
